<?xml version="1.0" encoding="UTF-8" standalone="no"?>
<!-- Generator: Adobe Illustrator 20.0.0, SVG Export Plug-In . SVG Version: 6.00 Build 0)  -->

<svg
   xmlns:dc="http://purl.org/dc/elements/1.1/"
   xmlns:cc="http://creativecommons.org/ns#"
   xmlns:rdf="http://www.w3.org/1999/02/22-rdf-syntax-ns#"
   xmlns:svg="http://www.w3.org/2000/svg"
   xmlns="http://www.w3.org/2000/svg"
   xmlns:sodipodi="http://sodipodi.sourceforge.net/DTD/sodipodi-0.dtd"
   xmlns:inkscape="http://www.inkscape.org/namespaces/inkscape"
   version="1.1"
   id="Ebene_1"
   x="0px"
   y="0px"
   viewBox="0 0 32 36"
   xml:space="preserve"
   width="32"
   height="36"
   class="br-symbol-library"
   sodipodi:docname="unplugged.svg"
   inkscape:version="0.92.3 (2405546, 2018-03-11)"><metadata
   id="metadata11"><rdf:RDF><cc:Work
       rdf:about=""><dc:format>image/svg+xml</dc:format><dc:type
         rdf:resource="http://purl.org/dc/dcmitype/StillImage" /><dc:title></dc:title></cc:Work></rdf:RDF></metadata><defs
   id="defs9" /><sodipodi:namedview
   pagecolor="#ffffff"
   bordercolor="#666666"
   borderopacity="1"
   objecttolerance="10"
   gridtolerance="10"
   guidetolerance="10"
   inkscape:pageopacity="0"
   inkscape:pageshadow="2"
   inkscape:window-width="1920"
   inkscape:window-height="1017"
   id="namedview7"
   showgrid="false"
   inkscape:zoom="14.75"
   inkscape:cx="-3.4273414"
   inkscape:cy="20.059412"
   inkscape:window-x="-8"
   inkscape:window-y="-8"
   inkscape:window-maximized="1"
   inkscape:current-layer="Ebene_1" />
<g
   id="Package"
   transform="matrix(1,0,0,0.8516587,0.09587889,-1.0588061)"
   style="fill:#000000;fill-opacity:1">
	<path
   d="m 32,29.292 c 0,0.736 -0.597,1.333 -1.333,1.333 H 1.333 C 0.597,30.625 0,30.028 0,29.292 V 10.708 C 0,9.972 0.597,9.375 1.333,9.375 H 30.666 C 31.403,9.375 32,9.972 32,10.708 Z M 29.295,4.125 H 15.513 L 15.051,2.683 C 14.815,1.986 14.028,1.375 13.295,1.375 H 6.628 c -0.733,0 -1.524,0.611 -1.755,1.308 L 4.406,4.125 H 2.628 C 1.895,4.125 1.25,4.684 1.25,5.418 v 2.707 h 29.5 V 5.418 c 0,-0.734 -0.722,-1.293 -1.455,-1.293 z"
   id="path2"
   inkscape:connector-curvature="0"
   style="fill:#000000;fill-opacity:1" />
</g>
<g
   id="Ebene_1_1_"
   transform="translate(0,4)">
</g>
<rect
   id="rect13"
   width="1.8866525"
   height="12.755301"
   x="15.544934"
   y="20.419094"
   style="stroke-width:2.06820035"
   ry="0.46786293" /><rect
   id="rect17"
   width="31.718052"
   height="2.7981861"
   x="0.3869226"
   y="31.609447"
   style="stroke-width:2.00725484"
   ry="1.399093"
   rx="0.35590202" /><rect
   style="fill:#c80005;fill-opacity:1;stroke-width:1.87035763"
   id="rect51-2-2"
   width="14.154373"
   height="4.019134"
   x="-39.78125"
   y="-11.402888"
   ry="1.0287309"
   transform="matrix(-0.70314194,-0.71104952,0.72262194,-0.69124346,0,0)" /><rect
   transform="matrix(0.71104952,-0.70314194,0.69124346,0.72262194,0,0)"
   ry="1.0287309"
   y="30.543074"
   x="-15.928924"
   height="4.019134"
   width="14.154373"
   id="rect4543"
   style="fill:#c80005;fill-opacity:1;stroke-width:1.87035763" /></svg>