<?xml version="1.0" encoding="UTF-8" standalone="no"?>
<!-- Generator: Adobe Illustrator 20.0.0, SVG Export Plug-In . SVG Version: 6.00 Build 0)  -->

<svg
   xmlns:dc="http://purl.org/dc/elements/1.1/"
   xmlns:cc="http://creativecommons.org/ns#"
   xmlns:rdf="http://www.w3.org/1999/02/22-rdf-syntax-ns#"
   xmlns:svg="http://www.w3.org/2000/svg"
   xmlns="http://www.w3.org/2000/svg"
   xmlns:sodipodi="http://sodipodi.sourceforge.net/DTD/sodipodi-0.dtd"
   xmlns:inkscape="http://www.inkscape.org/namespaces/inkscape"
   version="1.1"
   x="0px"
   y="0px"
   viewBox="0 0 32 32"
   style="enable-background:new 0 0 32 32;"
   xml:space="preserve"
   width="32px"
   height="32px"
   class="br-symbol-library"
   id="svg5"
   sodipodi:docname="Grinder_Fine.svg"
   inkscape:version="0.92.3 (2405546, 2018-03-11)"><metadata
   id="metadata11"><rdf:RDF><cc:Work
       rdf:about=""><dc:format>image/svg+xml</dc:format><dc:type
         rdf:resource="http://purl.org/dc/dcmitype/StillImage" /></cc:Work></rdf:RDF></metadata><defs
   id="defs9" /><sodipodi:namedview
   pagecolor="#ffffff"
   bordercolor="#666666"
   borderopacity="1"
   objecttolerance="10"
   gridtolerance="10"
   guidetolerance="10"
   inkscape:pageopacity="0"
   inkscape:pageshadow="2"
   inkscape:window-width="1920"
   inkscape:window-height="1121"
   id="namedview7"
   showgrid="false"
   inkscape:zoom="20.85965"
   inkscape:cx="-8.1061771"
   inkscape:cy="11.61568"
   inkscape:window-x="1911"
   inkscape:window-y="-9"
   inkscape:window-maximized="1"
   inkscape:current-layer="Information" />
<g
   id="Information"
   style="fill:#b3b3b3;fill-opacity:1">
	<path
   id="Information_3_"
   d="M 16,0 C 7.165,0 0,7.163 0,16 0,24.838 7.165,32 16,32 24.835,32 32,24.838 32,16 32,7.163 24.835,0 16,0 Z"
   inkscape:connector-curvature="0"
   sodipodi:nodetypes="sssss"
   style="fill:#2e9afe;fill-opacity:1" />
<path
   id="Information_3_-0"
   d="m 16.531448,7.7671163 c -4.305581,0 -7.7973176,3.4907617 -7.7973176,7.7973167 0,4.307042 3.4917366,7.797315 7.7973176,7.797315 4.305581,0 7.797315,-3.490273 7.797315,-7.797315 0,-4.306555 -3.491734,-7.7973167 -7.797315,-7.7973167 z"
   inkscape:connector-curvature="0"
   sodipodi:nodetypes="sssss"
   style="fill:#2e9afe;fill-opacity:1;stroke-width:0.48733222" /><path
   id="Information_3_-4-9-9"
   d="m 13.183348,8.4526543 c -1.364232,0 -2.470596,1.0127727 -2.470596,2.2622327 0,1.249601 1.106364,2.262233 2.470596,2.262233 1.364232,0 2.470596,-1.012632 2.470596,-2.262233 0,-1.24946 -1.106364,-2.2622327 -2.470596,-2.2622327 z"
   inkscape:connector-curvature="0"
   sodipodi:nodetypes="sssss"
   style="fill:#ffffff;fill-opacity:1;stroke-width:0.14775746" /><path
   id="Information_3_-4-9-3"
   d="m 18.600504,8.5964722 c -1.364232,0 -2.470596,1.0127738 -2.470596,2.2622328 0,1.249601 1.106364,2.262233 2.470596,2.262233 1.364232,0 2.470596,-1.012632 2.470596,-2.262233 0,-1.249459 -1.106364,-2.2622328 -2.470596,-2.2622328 z"
   inkscape:connector-curvature="0"
   sodipodi:nodetypes="sssss"
   style="fill:#ffffff;fill-opacity:1;stroke-width:0.14775746" /><path
   id="Information_3_-4-9-76"
   d="m 10.714466,13.551274 c -1.3642323,0 -2.4705963,1.012773 -2.4705963,2.262233 0,1.249601 1.106364,2.262233 2.4705963,2.262233 1.364232,0 2.470596,-1.012632 2.470596,-2.262233 0,-1.24946 -1.106364,-2.262233 -2.470596,-2.262233 z"
   inkscape:connector-curvature="0"
   sodipodi:nodetypes="sssss"
   style="fill:#ffffff;fill-opacity:1;stroke-width:0.14775746" /><path
   id="Information_3_-4-9-9-5"
   d="m 16.035744,13.565135 c -1.364232,0 -2.470596,1.012773 -2.470596,2.262233 0,1.249601 1.106364,2.262233 2.470596,2.262233 1.364232,0 2.470596,-1.012632 2.470596,-2.262233 0,-1.24946 -1.106364,-2.262233 -2.470596,-2.262233 z"
   inkscape:connector-curvature="0"
   sodipodi:nodetypes="sssss"
   style="fill:#ffffff;fill-opacity:1;stroke-width:0.14775746" /><path
   id="Information_3_-4-9-3-5"
   d="m 21.4529,13.708953 c -1.364232,0 -2.470596,1.012774 -2.470596,2.262233 0,1.249601 1.106364,2.262233 2.470596,2.262233 1.364232,0 2.470596,-1.012632 2.470596,-2.262233 0,-1.249459 -1.106364,-2.262233 -2.470596,-2.262233 z"
   inkscape:connector-curvature="0"
   sodipodi:nodetypes="sssss"
   style="fill:#ffffff;fill-opacity:1;stroke-width:0.14775746" /><path
   id="Information_3_-4-9-76-6"
   d="m 13.423045,18.393159 c -1.364233,0 -2.470597,1.012773 -2.470597,2.262233 0,1.249601 1.106364,2.262233 2.470597,2.262233 1.364232,0 2.470596,-1.012632 2.470596,-2.262233 0,-1.24946 -1.106364,-2.262233 -2.470596,-2.262233 z"
   inkscape:connector-curvature="0"
   sodipodi:nodetypes="sssss"
   style="fill:#ffffff;fill-opacity:1;stroke-width:0.14775746" /><path
   id="Information_3_-4-9-9-5-5"
   d="m 18.744323,18.40702 c -1.364232,0 -2.470596,1.012773 -2.470596,2.262233 0,1.249601 1.106364,2.262233 2.470596,2.262233 1.364232,0 2.470595,-1.012632 2.470595,-2.262233 0,-1.24946 -1.106363,-2.262233 -2.470595,-2.262233 z"
   inkscape:connector-curvature="0"
   sodipodi:nodetypes="sssss"
   style="fill:#ffffff;fill-opacity:1;stroke-width:0.14775746" /></g>
<g
   id="Ebene_1">
</g>
<g
   id="g827"
   transform="matrix(0.65225972,0,0,0.65225972,5.7704596,3.9723109)"
   style="fill:#ffffff;fill-opacity:1"><g
     id="Alarm"
     style="fill:#ffffff;fill-opacity:1">
	
</g><g
     id="Ebene_1_1_"
     style="fill:#ffffff;fill-opacity:1">
</g></g></svg>