<?xml version="1.0" encoding="UTF-8" standalone="no"?>
<!-- Generator: Adobe Illustrator 20.0.0, SVG Export Plug-In . SVG Version: 6.00 Build 0)  -->

<svg
   xmlns:dc="http://purl.org/dc/elements/1.1/"
   xmlns:cc="http://creativecommons.org/ns#"
   xmlns:rdf="http://www.w3.org/1999/02/22-rdf-syntax-ns#"
   xmlns:svg="http://www.w3.org/2000/svg"
   xmlns="http://www.w3.org/2000/svg"
   xmlns:sodipodi="http://sodipodi.sourceforge.net/DTD/sodipodi-0.dtd"
   xmlns:inkscape="http://www.inkscape.org/namespaces/inkscape"
   version="1.1"
   x="0px"
   y="0px"
   viewBox="0 0 32 32"
   style="enable-background:new 0 0 32 32;"
   xml:space="preserve"
   width="32px"
   height="32px"
   class="br-symbol-library"
   id="svg5"
   sodipodi:docname="Filter_Normal.svg"
   inkscape:version="0.92.3 (2405546, 2018-03-11)"><metadata
   id="metadata11"><rdf:RDF><cc:Work
       rdf:about=""><dc:format>image/svg+xml</dc:format><dc:type
         rdf:resource="http://purl.org/dc/dcmitype/StillImage" /></cc:Work></rdf:RDF></metadata><defs
   id="defs9" /><sodipodi:namedview
   pagecolor="#ffffff"
   bordercolor="#666666"
   borderopacity="1"
   objecttolerance="10"
   gridtolerance="10"
   guidetolerance="10"
   inkscape:pageopacity="0"
   inkscape:pageshadow="2"
   inkscape:window-width="1920"
   inkscape:window-height="1121"
   id="namedview7"
   showgrid="false"
   inkscape:zoom="20.85965"
   inkscape:cx="5.2694648"
   inkscape:cy="11.61568"
   inkscape:window-x="1911"
   inkscape:window-y="-9"
   inkscape:window-maximized="1"
   inkscape:current-layer="Information" />
<g
   id="Information"
   style="fill:#b3b3b3;fill-opacity:1">
	<path
   id="Information_3_"
   d="M 16,0 C 7.165,0 0,7.163 0,16 0,24.838 7.165,32 16,32 24.835,32 32,24.838 32,16 32,7.163 24.835,0 16,0 Z"
   inkscape:connector-curvature="0"
   sodipodi:nodetypes="sssss"
   style="fill:#2e9afe;fill-opacity:1" />
<path
   id="Information_3_-4"
   d="m 15.981052,5.2120554 c -6.4467725,0 -11.6749695,4.7859285 -11.6749695,10.6903326 0,5.905073 5.228197,10.690334 11.6749695,10.690334 6.446772,0 11.674968,-4.785261 11.674968,-10.690334 0,-5.9044041 -5.228196,-10.6903326 -11.674968,-10.6903326 z"
   inkscape:connector-curvature="0"
   sodipodi:nodetypes="sssss"
   style="fill:#ffffff;fill-opacity:1;stroke-width:0.69823796" /><path
   id="Information_3_-0"
   d="m 16.004114,8.1506319 c -4.305581,0 -7.7973175,3.4907621 -7.7973175,7.7973171 0,4.307042 3.4917365,7.797315 7.7973175,7.797315 4.305581,0 7.797315,-3.490273 7.797315,-7.797315 0,-4.306555 -3.491734,-7.7973171 -7.797315,-7.7973171 z"
   inkscape:connector-curvature="0"
   sodipodi:nodetypes="sssss"
   style="fill:#2e9afe;fill-opacity:1;stroke-width:0.48733222" /></g>
<g
   id="Ebene_1">
</g>
<g
   id="g827"
   transform="matrix(0.65225972,0,0,0.65225972,5.7704596,3.9723109)"
   style="fill:#ffffff;fill-opacity:1"><g
     id="Alarm"
     style="fill:#ffffff;fill-opacity:1">
	
</g><g
     id="Ebene_1_1_"
     style="fill:#ffffff;fill-opacity:1">
</g></g></svg>