<?xml version="1.0" encoding="UTF-8"?>
<svg width="32" height="32" data-name="Layer 1" version="1.1" viewBox="0 0 32 32" xmlns="http://www.w3.org/2000/svg" xmlns:cc="http://creativecommons.org/ns#" xmlns:dc="http://purl.org/dc/elements/1.1/" xmlns:rdf="http://www.w3.org/1999/02/22-rdf-syntax-ns#">
 <title>movement-tuning</title>
 <g transform="matrix(.22307 0 0 .22307 2.1393 3.2375)" fill="#f80">
  <path d="m114.71 66h-10.06v-9.7h10a53.23 53.23 0 0 0-14-31.15l-5.43 5.43-6.82-6.87 5.07-5.07a53.21 53.21 0 0 0-28.68-10.56v7.09h-9.69v-6.82a53.23 53.23 0 0 0-28 12.16l5.32 5.32-6.85 6.85-5.29-5.29a53.17 53.17 0 0 0-12 28.89h8.72v9.72h-8.83a53.19 53.19 0 0 0 11.65 29l7.39-7.39 6.85 6.85-7.5 7.5 0.1 0.08-5.17 6a61.47 61.47 0 1 1 81.51-1.34l-3.51-3.81-8.49-8.42 6.85-6.85 6.15 6.19a53.84 53.84 0 0 0 6.41-10.87 53.12 53.12 0 0 0 4.3-17zm-53.27-25a17.9 17.9 0 0 1 3.61 0.36l-11.25 8.47a3.09 3.09 0 0 0-0.39 0.33c-4.31 3.62-5.3 8.19-4.23 12.16a11.83 11.83 0 0 0 3.12 5.33 11.56 11.56 0 0 0 5.45 3c4.14 1 9-0.28 13-5.39a3.28 3.28 0 0 0 0.27-0.38l7.8-10.72a18.05 18.05 0 0 1-7.25 19.64 18 18 0 1 1-10.13-32.9z"/>
  <path d="m85.62 30.71-29.42 22.29c-9.46 7.58 2.8 20.76 11.42 9.84l21.25-29.19z"/>
 </g>
</svg>
