<?xml version="1.0" encoding="UTF-8"?>
<svg width="32" height="32" version="1.1" viewBox="0 0 32 32" xml:space="preserve" xmlns="http://www.w3.org/2000/svg">
<g transform="matrix(.23096 0 0 .23096 2.3695 2.219)" fill="#fff">
<path d="m66.229 26.322-7.2672 7.2672-7.4923 7.5861-11.074 11.074-7.5861 7.4923-7.0703 7.0703c-1.3128 1.3128-3.4508 1.3128-4.7636 0l-2.7662-2.7662c-1.3128-1.3128-1.3128-3.4508 0-4.7636l40.49-40.49c1.3128-1.3128 3.4508-1.3128 4.7636 0l2.7662 2.7662c1.3128 1.3128 1.3128 3.4508 0 4.7636zm-20.076 0.72204-20.086 20.095-2.9819-2.9819 20.086-20.086zm4.4729 65.049 7.2672-7.2672-14.619-14.619c-2.0723-2.0723-2.0723-5.4668 0-7.5392 2.0723-2.0723 5.4668-2.0723 7.5392 0l14.572 14.572 11.074-11.074-14.572-14.572c-2.0723-2.0723-2.0723-5.4668 0-7.5392s5.4668-2.0723 7.5392 0l14.619 14.619 7.0703-7.0703c1.3128-1.3128 3.4508-1.3128 4.7636 0l2.7662 2.7662c1.3128 1.3128 1.3128 3.4508 0 4.7636l-40.49 40.49c-1.3128 1.3128-3.4508 1.3128-4.7636 0l-2.7662-2.7662c-1.3128-1.3034-1.3128-3.4508 0-4.7636zm20.029-0.76892 20.086-20.086 2.9819 2.9819-20.086 20.086zm-10.634 6.4233 5.8138 5.8232c10.118 10.118 19.561 10.577 31.113 1.5097l11.543 11.543 7.5392-7.5392-11.637-11.637c9.2177-11.187 7.8205-21.792-1.9786-31.591l-5.2512-5.2512zm-3.1882-77.08-5.8138-5.8232c-10.118-10.118-19.57-10.577-31.113-1.5097l-11.553-11.543-7.5392 7.5392 11.637 11.637c-9.2177 11.187-7.8205 21.792 1.9786 31.591l5.2512 5.2512z" stroke-width=".93771"/>
</g>
</svg>
