<?xml version="1.0" encoding="UTF-8"?>
<svg id="pictogram" width="270" height="63" version="1.1" viewBox="0 0 270 63" xmlns="http://www.w3.org/2000/svg">
 <g fill="#fff">
  <g transform="matrix(1.311 0 0 1.311 -.62202 -.62202)">
   <path d="m75.1 43.06c-0.52 0.17-1.08 0.25-1.67 0.25-0.87 0-1.65-0.18-2.32-0.55-0.67-0.36-1.19-0.89-1.57-1.58-0.37-0.69-0.56-1.51-0.56-2.44 0-0.89 0.17-1.67 0.52-2.34 0.34-0.68 0.84-1.21 1.48-1.59 0.65-0.39 1.39-0.58 2.25-0.58 0.59 0 1.16 0.1 1.69 0.3 0.54 0.2 0.97 0.47 1.29 0.81l0.52-0.7c-0.84-0.86-2-1.3-3.48-1.3-1.01 0-1.91 0.22-2.7 0.66s-1.41 1.07-1.87 1.89c-0.45 0.82-0.68 1.78-0.68 2.87s0.22 2 0.66 2.82 1.06 1.46 1.88 1.93 1.78 0.7 2.88 0.7c0.69 0 1.32-0.09 1.91-0.28s1.06-0.45 1.41-0.78l-0.39-0.75c-0.31 0.28-0.73 0.51-1.25 0.67z"/>
   <path d="m83.77 36.54c-0.6-0.38-1.28-0.56-2.04-0.56-0.72 0-1.37 0.17-1.97 0.52-0.59 0.34-1.07 0.83-1.42 1.47-0.35 0.63-0.53 1.35-0.53 2.14 0 0.75 0.16 1.43 0.48 2.05s0.78 1.12 1.38 1.49 1.28 0.56 2.05 0.56c0.72 0 1.37-0.17 1.97-0.52 0.59-0.34 1.07-0.83 1.42-1.46s0.53-1.34 0.53-2.13c0-0.75-0.16-1.44-0.49-2.06s-0.79-1.12-1.39-1.5zm0.59 5.21c-0.25 0.5-0.6 0.89-1.06 1.19s-0.98 0.45-1.56 0.45c-0.55 0-1.05-0.14-1.51-0.41-0.45-0.27-0.81-0.66-1.08-1.15-0.27-0.5-0.41-1.07-0.41-1.72 0-0.6 0.12-1.16 0.37-1.65 0.25-0.5 0.6-0.9 1.06-1.19 0.46-0.3 0.98-0.45 1.56-0.45 0.41 0 0.79 0.08 1.15 0.23s0.68 0.37 0.95 0.66c0.28 0.29 0.49 0.64 0.66 1.05 0.16 0.41 0.24 0.86 0.24 1.35 0 0.6-0.12 1.15-0.37 1.65z"/>
   <path d="m92.48 43.15c-0.44 0.15-0.9 0.23-1.39 0.23-0.85 0-1.54-0.3-2.07-0.91-0.53-0.6-0.79-1.39-0.79-2.37s0.26-1.78 0.79-2.39c0.53-0.6 1.21-0.91 2.07-0.91 0.95 0 1.71 0.27 2.28 0.81l0.45-0.67c-0.65-0.65-1.56-0.97-2.75-0.97-0.72 0-1.36 0.17-1.93 0.51s-1.01 0.82-1.34 1.44-0.49 1.35-0.49 2.17c0 1.22 0.35 2.21 1.05 2.97s1.6 1.14 2.72 1.14c0.58 0 1.12-0.08 1.61-0.25s0.89-0.4 1.2-0.69l-0.39-0.7c-0.24 0.24-0.58 0.43-1.01 0.59z"/>
   <polygon points="96.6 40.06 96.6 32.77 95.71 32.77 95.71 44 96.6 44 96.6 41.17 97.69 40.11 101.14 44 102.28 44 98.3 39.53 101.78 36.18 100.63 36.18"/>
   <path d="m109.52 36.53c-0.56-0.37-1.2-0.55-1.92-0.55-0.66 0-1.25 0.16-1.78 0.48s-0.95 0.76-1.25 1.32v-1.59h-0.89v10.97h0.89v-4.71c0.29 0.56 0.7 1 1.23 1.3 0.53 0.31 1.13 0.46 1.79 0.46s1.29-0.17 1.85-0.52c0.56-0.34 1-0.83 1.33-1.45s0.5-1.34 0.5-2.14c0-0.76-0.15-1.45-0.46-2.08-0.31-0.62-0.74-1.12-1.3-1.49zm0.49 5.21c-0.23 0.5-0.57 0.89-1.01 1.19s-0.93 0.45-1.48 0.45-1.04-0.14-1.48-0.41c-0.45-0.27-0.81-0.66-1.08-1.15-0.27-0.5-0.41-1.07-0.41-1.72 0-0.6 0.12-1.16 0.37-1.65 0.25-0.5 0.6-0.9 1.05-1.19 0.45-0.3 0.97-0.45 1.54-0.45 0.52 0 1 0.14 1.43 0.41 0.43 0.28 0.77 0.66 1.03 1.16s0.38 1.07 0.38 1.72c0 0.6-0.12 1.15-0.35 1.65z"/>
   <path d="m114 36.18h-1.36v0.81h1.33v7.01h0.89v-6.96c0-0.3-0.07-0.52-0.2-0.66-0.14-0.14-0.35-0.2-0.66-0.2z"/>
   <path d="m114.21 32.87c-0.22 0-0.4 0.07-0.53 0.21-0.14 0.14-0.2 0.32-0.2 0.52s0.07 0.38 0.2 0.52c0.14 0.14 0.31 0.21 0.53 0.21s0.4-0.07 0.53-0.21c0.14-0.14 0.2-0.32 0.2-0.52s-0.07-0.38-0.2-0.52c-0.14-0.14-0.31-0.21-0.53-0.21z"/>
   <path d="m121.11 43.3c-0.23 0.06-0.46 0.09-0.68 0.09-1.01 0-1.51-0.63-1.51-1.89v-4.51h2.59v-0.81h-2.59v-1.95h-0.81v1.39c0 0.21-0.04 0.35-0.12 0.44-0.08 0.08-0.23 0.12-0.45 0.12h-0.87v0.81h1.37v4.54c0 0.86 0.19 1.52 0.58 1.98 0.38 0.46 0.95 0.69 1.69 0.69 0.31 0 0.61-0.04 0.91-0.11 0.29-0.07 0.53-0.17 0.7-0.3l-0.2-0.72c-0.16 0.09-0.35 0.17-0.59 0.23z"/>
   <path d="m88.42 10.62v9.15h4.4v-9.43c0-2.12-0.52-3.78-1.55-4.98s-2.45-1.8-4.26-1.8c-1.29 0-2.42 0.28-3.4 0.83s-1.73 1.35-2.25 2.39c-0.42-1.04-1.01-1.84-1.8-2.39-0.78-0.55-1.7-0.83-2.76-0.83s-2 0.22-2.83 0.67c-0.82 0.45-1.47 1.09-1.95 1.92v-2.15h-4.03v15.77h4.4v-8.4c0-1.29 0.27-2.28 0.81-2.97s1.3-1.03 2.28-1.03c1.81 0 2.72 1.08 2.72 3.25v9.15h4.4v-8.59c0-1.23 0.27-2.17 0.81-2.83s1.3-0.98 2.28-0.98c1.81 0 2.72 1.08 2.72 3.25z"/>
   <path d="m109.87 10.24c0-2.1-0.64-3.74-1.9-4.92-1.27-1.18-3.05-1.76-5.34-1.76-1.17 0-2.27 0.16-3.32 0.47s-1.94 0.74-2.67 1.28l1.25 2.9c1.33-0.81 2.72-1.22 4.15-1.22 1.14 0 1.99 0.23 2.54 0.69s0.86 1.2 0.92 2.22h-2.53c-2.29 0-4.06 0.47-5.31 1.42s-1.87 2.27-1.87 3.98c0 1.52 0.49 2.72 1.47 3.61s2.31 1.33 4 1.33c1.12 0 2.13-0.2 3.01-0.59 0.88-0.4 1.58-0.97 2.08-1.72 0.13 0.65 0.4 1.11 0.83 1.4s1.02 0.44 1.79 0.44h2.81v-3.59h-1.9v-5.93zm-4.34 3.44c0 0.98-0.29 1.76-0.86 2.34s-1.33 0.87-2.26 0.87c-0.77 0-1.37-0.18-1.8-0.55-0.43-0.36-0.64-0.88-0.64-1.54 0-0.71 0.27-1.23 0.8-1.56s1.38-0.5 2.54-0.5h2.22z"/>
   <path d="m127.64 4.65c-1.1-0.73-2.37-1.09-3.81-1.09-1.08 0-2.07 0.22-2.95 0.67s-1.62 1.08-2.2 1.89v-2.12h-4.28v22.07h4.4v-8.37c0.54 0.83 1.24 1.46 2.11 1.89 0.86 0.43 1.84 0.64 2.92 0.64 1.37 0 2.61-0.34 3.7-1.02s1.96-1.65 2.59-2.92 0.95-2.74 0.95-4.4-0.3-3-0.89-4.26-1.44-2.25-2.54-2.98zm-2.15 10.49c-0.73 0.83-1.68 1.25-2.84 1.25s-2.19-0.42-2.94-1.25-1.12-1.91-1.12-3.25 0.38-2.41 1.12-3.25c0.75-0.83 1.73-1.25 2.94-1.25s2.11 0.42 2.84 1.25 1.09 1.91 1.09 3.25-0.36 2.41-1.09 3.25z"/>
   <path d="m149.94 7.64c-0.59-1.26-1.44-2.25-2.54-2.98s-2.37-1.09-3.81-1.09c-1.08 0-2.07 0.22-2.95 0.67s-1.62 1.08-2.2 1.89v-2.13h-4.28v22.07h4.4v-8.37c0.54 0.83 1.24 1.46 2.11 1.89 0.86 0.43 1.84 0.64 2.92 0.64 1.37 0 2.61-0.34 3.7-1.02s1.96-1.65 2.59-2.92 0.95-2.74 0.95-4.4-0.3-3-0.89-4.26zm-4.7 7.51c-0.73 0.83-1.68 1.25-2.84 1.25s-2.19-0.42-2.94-1.25-1.12-1.91-1.12-3.25 0.38-2.41 1.12-3.25c0.75-0.83 1.73-1.25 2.94-1.25s2.11 0.42 2.84 1.25 1.09 1.91 1.09 3.25-0.36 2.41-1.09 3.25z"/>
  </g>
  <path d="m47.138 36.519-4.3919-1.2586-1.4683-2.6482c5.5718-3.8544 7.4334-11.406 4.0772-17.45-3.5659-6.4371-11.707-8.7575-18.144-5.1916-6.4371 3.5659-8.7575 11.707-5.1916 18.144 2.4385 4.3919 7.0008 6.8697 11.694 6.8697 1.7699 0 3.5659-0.38019 5.2703-1.1144l1.4814 2.6614-1.2586 4.3919 0.11799 0.99637 8.7575 15.785 1.783 0.51129 6.306-3.5004 0.51129-1.783-8.7575-15.785zm-22.812-9.6621c-2.8711-5.1654-0.99637-11.707 4.169-14.578 1.6388-0.91771 3.4217-1.3503 5.1916-1.3503 3.7757 0 7.4334 1.9927 9.3868 5.5194 2.8711 5.1654 0.99637 11.707-4.169 14.578s-11.707 0.99637-14.578-4.169zm25.42 28.423-7.8661-14.159 0.89149-3.1202 3.1202 0.89149 7.8661 14.159-4.0248 2.2287z" stroke-width="1.311"/>
  <path d="m3.311 2-1.311 1.311v36.708l1.311 1.311h24.909v5.4407c-5.7816 0.69484-10.291 5.6373-10.291 11.602l1.311 1.311h20.78l1.311-1.311c0-6.0438-4.6016-11.026-10.488-11.629v-5.4145h5.244v-2.622h-31.464v-34.086h52.44v34.086h-3.933v2.622h5.244l1.311-1.311v-36.708l-1.311-1.311zm35.306 55.062h-17.961c0.6424-4.3919 4.4181-7.7612 8.9804-7.7612s8.338 3.3824 8.9804 7.7612z" stroke-width="1.311"/>
  <g transform="matrix(.1062 0 0 .1062 180.91 18.981)">
   <title>Version Number</title>
   <text id="version_text" transform="scale(.85757 1.1661)" x="-107.35108" y="308.21506" fill="#ffffff" font-family="Calibri" font-size="163.22px" font-weight="300" stroke="#000000" stroke-width="0" style="font-variant-caps:normal;font-variant-east-asian:normal;font-variant-ligatures:normal;font-variant-numeric:normal" xml:space="preserve"><tspan x="-107.35108" y="308.21506" fill="#ffffff" font-family="Calibri" font-size="163.22px" font-weight="300" stroke-width="0" style="font-variant-caps:normal;font-variant-east-asian:normal;font-variant-ligatures:normal;font-variant-numeric:normal">6.00.0000</tspan></text>
  </g>
 </g>
</svg>
