<?xml version="1.0" encoding="UTF-8" standalone="no"?>
<!-- Generator: Adobe Illustrator 20.0.0, SVG Export Plug-In . SVG Version: 6.00 Build 0)  -->

<svg
   xmlns:dc="http://purl.org/dc/elements/1.1/"
   xmlns:cc="http://creativecommons.org/ns#"
   xmlns:rdf="http://www.w3.org/1999/02/22-rdf-syntax-ns#"
   xmlns:svg="http://www.w3.org/2000/svg"
   xmlns="http://www.w3.org/2000/svg"
   xmlns:sodipodi="http://sodipodi.sourceforge.net/DTD/sodipodi-0.dtd"
   xmlns:inkscape="http://www.inkscape.org/namespaces/inkscape"
   version="1.1"
   x="0px"
   y="0px"
   viewBox="0 0 32 32"
   style="enable-background:new 0 0 32 32;"
   xml:space="preserve"
   width="32px"
   height="32px"
   class="br-symbol-library"
   id="svg5"
   sodipodi:docname="Information.svg"
   inkscape:version="0.92.3 (2405546, 2018-03-11)"><metadata
   id="metadata11"><rdf:RDF><cc:Work
       rdf:about=""><dc:format>image/svg+xml</dc:format><dc:type
         rdf:resource="http://purl.org/dc/dcmitype/StillImage" /></cc:Work></rdf:RDF></metadata><defs
   id="defs9" /><sodipodi:namedview
   pagecolor="#ffffff"
   bordercolor="#666666"
   borderopacity="1"
   objecttolerance="10"
   gridtolerance="10"
   guidetolerance="10"
   inkscape:pageopacity="0"
   inkscape:pageshadow="2"
   inkscape:window-width="1920"
   inkscape:window-height="1121"
   id="namedview7"
   showgrid="false"
   inkscape:zoom="14.75"
   inkscape:cx="19.73695"
   inkscape:cy="5.1636902"
   inkscape:window-x="1911"
   inkscape:window-y="-9"
   inkscape:window-maximized="1"
   inkscape:current-layer="svg5" />
<rect
   style="fill:#fffffd;fill-opacity:1;fill-rule:nonzero"
   id="rect818"
   width="11.79661"
   height="21.220339"
   x="10.779661"
   y="5.4915252" /><g
   id="Information"
   style="fill:#84c3fd;fill-opacity:1"
   transform="translate(0.06779661,0.06779661)">
	<path
   id="Information_3_"
   d="M 16,0 C 7.165,0 0,7.163 0,16 0,24.838 7.165,32 16,32 24.835,32 32,24.838 32,16 32,7.163 24.835,0 16,0 Z m 2.79,10.122 c 0,0.36 -0.292,0.652 -0.652,0.652 h -2.695 c -0.36,0 -0.652,-0.292 -0.652,-0.652 V 7.427 c 0,-0.36 0.292,-0.652 0.652,-0.652 h 2.695 c 0.36,0 0.652,0.292 0.652,0.652 z m 2.5,14.368 c 0,0.36 -0.36,0.785 -0.717,0.785 h -7.838 c -0.36,0 -0.695,-0.425 -0.695,-0.785 v -2.613 c 0,-0.36 0.335,-0.603 0.695,-0.603 h 2.055 v -5.25 h -2.055 c -0.36,0 -0.695,-0.317 -0.695,-0.677 v -2.613 c 0,-0.36 0.335,-0.71 0.695,-0.71 h 5.225 c 0.36,0 0.58,0.35 0.58,0.71 v 8.54 h 2.033 c 0.357,0 0.717,0.243 0.717,0.603 z"
   style="fill:#84c3fd;fill-opacity:1"
   inkscape:connector-curvature="0" />
</g>
<g
   id="Ebene_1">
</g>
</svg>