<?xml version="1.0" encoding="UTF-8"?><svg id="pictogram" xmlns="http://www.w3.org/2000/svg" viewBox="0 0 155 48"><g><path d="m41,32l-1,1v.51l-4.38-1.46-.32-.05h-11.92c-1.35,0-2.55.84-2.93,2.05-.3.95-.15,1.94.43,2.73.56.77,1.47,1.23,2.42,1.23h1.39l-1.67,1h-7.64c-1.35,0-2.55.84-2.93,2.05-.3.95-.15,1.94.43,2.73.56.77,1.47,1.23,2.42,1.23h8l8.06-1h8.64v1l1,1h4l1-1v-12l-1-1h-4Zm-9.7,10l-8.06,1h-7.94c-.32,0-.62-.15-.81-.41-.11-.15-.28-.48-.14-.94.12-.38.55-.65,1.03-.65h7.92l.51-.14,4.76-2.86h2.42v-2h-7.7c-.32,0-.62-.15-.81-.41-.11-.15-.28-.48-.14-.94.12-.38.55-.65,1.03-.65h11.75l4.86,1.62v6.38h-8.7Zm12.7,2h-2v-10h2v10Z"/><polygon points="27 18 27 30 29 30 29 25 38 25 38 23 29 23 29 18 27 18"/><polygon points="21 30 21 18 19 18 19 23 10 23 10 25 19 25 19 30 21 30"/><path d="m45,2H3l-1,1v42l1,1h8v-2h-7V12h40v18h2V3l-1-1ZM4,10v-6h40v6H4Z"/><rect x="37" y="6" width="4" height="2"/><rect x="30" y="6" width="4" height="2"/></g><g><path d="m76.81,3.56c1.06,0,1.98.28,2.76.83.78.55,1.38,1.35,1.8,2.39.52-1.04,1.27-1.84,2.25-2.39.98-.55,2.11-.83,3.4-.83,1.81,0,3.23.6,4.26,1.8,1.03,1.2,1.55,2.86,1.55,4.98v9.43h-4.4v-9.15c0-2.16-.91-3.25-2.72-3.25-.98,0-1.74.33-2.28.98-.54.66-.81,1.6-.81,2.83v8.59h-4.4v-9.15c0-2.16-.91-3.25-2.72-3.25-.98,0-1.74.34-2.28,1.03-.54.69-.81,1.68-.81,2.97v8.4h-4.4V4h4.03v2.15c.48-.83,1.13-1.47,1.95-1.92s1.76-.67,2.83-.67Z"/><path d="m108.97,19.77c-.77,0-1.37-.15-1.79-.44-.43-.29-.7-.76-.83-1.4-.5.75-1.19,1.32-2.08,1.72-.89.4-1.89.59-3.01.59-1.69,0-3.02-.44-4-1.33s-1.47-2.09-1.47-3.61c0-1.71.62-3.03,1.87-3.98,1.25-.95,3.02-1.42,5.31-1.42h2.53c-.06-1.02-.37-1.76-.92-2.22-.55-.46-1.4-.69-2.54-.69-1.44,0-2.82.41-4.15,1.22l-1.25-2.9c.73-.54,1.62-.97,2.67-1.28,1.05-.31,2.16-.47,3.32-.47,2.29,0,4.07.59,5.34,1.76,1.27,1.18,1.9,2.82,1.9,4.92v5.93h1.9v3.59h-2.81Zm-8.99-4.96c0,.67.21,1.18.64,1.54.43.36,1.02.55,1.8.55.94,0,1.69-.29,2.26-.87.57-.58.86-1.36.86-2.34v-.94h-2.22c-1.17,0-2.01.17-2.54.5-.53.33-.8.85-.8,1.56Z"/><path d="m114.4,26.07V4h4.28v2.12c.58-.81,1.32-1.44,2.2-1.89s1.87-.67,2.95-.67c1.44,0,2.71.36,3.81,1.09,1.1.73,1.95,1.72,2.54,2.98.59,1.26.89,2.68.89,4.26,0,1.66-.32,3.13-.95,4.4-.63,1.27-1.5,2.24-2.59,2.92-1.09.68-2.33,1.02-3.7,1.02-1.08,0-2.06-.21-2.92-.64-.86-.43-1.57-1.06-2.11-1.89v8.37h-4.4Zm8.24-9.68c1.17,0,2.11-.42,2.84-1.25.73-.83,1.09-1.91,1.09-3.25s-.36-2.41-1.09-3.25c-.73-.83-1.68-1.25-2.84-1.25s-2.19.42-2.94,1.25c-.75.83-1.12,1.91-1.12,3.25s.38,2.41,1.12,3.25c.75.83,1.73,1.25,2.94,1.25Z"/><path d="m134.16,26.07V4h4.28v2.12c.58-.81,1.32-1.44,2.2-1.89s1.87-.67,2.95-.67c1.44,0,2.71.36,3.81,1.09,1.1.73,1.95,1.72,2.54,2.98.59,1.26.89,2.68.89,4.26,0,1.66-.32,3.13-.95,4.4-.63,1.27-1.5,2.24-2.59,2.92-1.09.68-2.33,1.02-3.7,1.02-1.08,0-2.06-.21-2.92-.64-.86-.43-1.57-1.06-2.11-1.89v8.37h-4.4Zm8.24-9.68c1.17,0,2.11-.42,2.84-1.25.73-.83,1.09-1.91,1.09-3.25s-.36-2.41-1.09-3.25c-.73-.83-1.68-1.25-2.84-1.25s-2.19.42-2.94,1.25c-.75.83-1.12,1.91-1.12,3.25s.38,2.41,1.12,3.25c.75.83,1.73,1.25,2.94,1.25Z"/></g><g><path d="m73.03,33.75c1.42,0,2.54.42,3.35,1.25l-.5.67c-.31-.33-.72-.59-1.24-.78-.52-.19-1.06-.28-1.63-.28-.82,0-1.54.18-2.16.55s-1.1.88-1.42,1.53c-.33.65-.5,1.4-.5,2.25,0,.9.18,1.68.54,2.35s.86,1.17,1.51,1.52c.65.35,1.39.52,2.23.52.57,0,1.1-.08,1.6-.24.5-.16.9-.38,1.2-.64l.38.72c-.34.32-.79.57-1.36.75-.57.18-1.18.27-1.84.27-1.06,0-1.98-.23-2.77-.68-.79-.45-1.39-1.07-1.81-1.85s-.63-1.69-.63-2.71.22-1.97.65-2.76,1.03-1.4,1.79-1.82c.76-.42,1.62-.63,2.59-.63Z"/><path d="m81.17,44.2c-.74,0-1.4-.18-1.97-.54-.58-.36-1.02-.84-1.33-1.43s-.46-1.25-.46-1.97c0-.76.17-1.45.51-2.05.34-.61.79-1.08,1.36-1.41.57-.33,1.2-.5,1.89-.5.73,0,1.38.18,1.96.54.57.36,1.02.84,1.33,1.44.31.6.47,1.26.47,1.98,0,.76-.17,1.44-.51,2.05-.34.6-.79,1.07-1.36,1.4-.57.33-1.2.5-1.89.5Zm0-.79c.56,0,1.06-.14,1.5-.43.44-.29.78-.67,1.02-1.14.24-.47.36-1,.36-1.58,0-.47-.08-.9-.23-1.3-.16-.39-.37-.73-.63-1.01-.27-.28-.57-.49-.92-.64-.35-.15-.71-.22-1.1-.22-.56,0-1.06.14-1.5.43-.44.29-.78.67-1.02,1.15-.24.48-.36,1.01-.36,1.59,0,.62.13,1.17.39,1.65.26.48.61.85,1.04,1.11.44.26.92.39,1.45.39Z"/><path d="m92.99,44v-1.51c-.29.53-.69.95-1.21,1.25s-1.08.46-1.69.46c-.7,0-1.32-.18-1.86-.53-.54-.35-.96-.83-1.25-1.42-.29-.59-.44-1.26-.44-1.99,0-.77.16-1.46.48-2.06.32-.6.75-1.07,1.28-1.4.53-.33,1.13-.5,1.79-.5s1.2.15,1.7.45c.5.3.9.72,1.19,1.26v-4.79h.85v10.79h-.84Zm-2.85-.6c.55,0,1.04-.14,1.48-.43s.78-.67,1.01-1.14c.23-.47.35-1,.35-1.58,0-.62-.13-1.17-.39-1.66-.26-.49-.61-.86-1.04-1.12-.43-.26-.91-.39-1.42-.39s-1.01.15-1.43.43c-.42.29-.74.67-.97,1.15-.23.47-.34,1-.34,1.58,0,.61.12,1.16.37,1.63.25.48.58.85.99,1.12.41.26.87.4,1.37.4Z"/><path d="m102.52,43.37c-.32.26-.72.46-1.2.61s-1.01.22-1.58.22c-1.17,0-2.1-.36-2.78-1.07s-1.03-1.67-1.03-2.89c0-.77.16-1.46.47-2.06.31-.61.74-1.07,1.28-1.4.54-.32,1.14-.49,1.8-.49.95,0,1.71.33,2.28.99.57.66.85,1.55.85,2.67v.48h-5.83c.03.94.31,1.67.83,2.2.52.52,1.23.79,2.13.79.49,0,.95-.06,1.38-.19s.79-.3,1.08-.53l.31.67Zm-3.06-6.3c-.72,0-1.32.24-1.81.72-.49.48-.77,1.12-.85,1.92h4.98c-.03-.82-.25-1.46-.67-1.93-.42-.47-.97-.71-1.66-.71Z"/><path d="m104.9,33.95h3.06c1.06,0,1.88.22,2.47.67.58.45.88,1.06.88,1.85,0,.52-.12.97-.35,1.34s-.58.65-1.03.83c.73.16,1.29.46,1.67.9.38.44.58,1,.58,1.67,0,.97-.33,1.68-.98,2.12-.66.45-1.68.67-3.07.67h-3.22v-10.05Zm3.22,4.37c1.52,0,2.28-.6,2.28-1.79,0-.57-.21-1-.62-1.31-.42-.3-1.02-.45-1.82-.45h-2.16v3.54h2.32Zm.05,4.86c1.09,0,1.88-.15,2.36-.46.48-.31.73-.81.73-1.5s-.25-1.23-.76-1.57c-.51-.33-1.29-.5-2.36-.5h-2.34v4.04h2.37Z"/><path d="m117.43,44.2c-.74,0-1.4-.18-1.97-.54-.58-.36-1.02-.84-1.33-1.43s-.46-1.25-.46-1.97c0-.76.17-1.45.51-2.05.34-.61.79-1.08,1.36-1.41.57-.33,1.2-.5,1.89-.5.73,0,1.38.18,1.96.54.57.36,1.02.84,1.33,1.44.31.6.47,1.26.47,1.98,0,.76-.17,1.44-.51,2.05-.34.6-.79,1.07-1.36,1.4-.57.33-1.2.5-1.89.5Zm0-.79c.56,0,1.06-.14,1.5-.43.44-.29.78-.67,1.02-1.14.24-.47.36-1,.36-1.58,0-.47-.08-.9-.23-1.3-.16-.39-.37-.73-.63-1.01-.27-.28-.57-.49-.92-.64-.35-.15-.71-.22-1.1-.22-.56,0-1.06.14-1.5.43-.44.29-.78.67-1.02,1.15-.24.48-.36,1.01-.36,1.59,0,.62.13,1.17.39,1.65.26.48.61.85,1.04,1.11.44.26.92.39,1.45.39Z"/><path d="m122.08,44l2.9-3.83-2.75-3.69h1.01l2.26,3.09,2.21-3.09h.98l-2.73,3.69,2.88,3.83h-1l-2.4-3.24-2.37,3.24h-.98Z"/></g></svg>