<?xml version="1.0" encoding="UTF-8" standalone="no"?>
<!-- Generator: Adobe Illustrator 20.0.0, SVG Export Plug-In . SVG Version: 6.00 Build 0)  -->

<svg
   xmlns:dc="http://purl.org/dc/elements/1.1/"
   xmlns:cc="http://creativecommons.org/ns#"
   xmlns:rdf="http://www.w3.org/1999/02/22-rdf-syntax-ns#"
   xmlns:svg="http://www.w3.org/2000/svg"
   xmlns="http://www.w3.org/2000/svg"
   xmlns:sodipodi="http://sodipodi.sourceforge.net/DTD/sodipodi-0.dtd"
   xmlns:inkscape="http://www.inkscape.org/namespaces/inkscape"
   version="1.1"
   id="Ebene_1"
   x="0px"
   y="0px"
   viewBox="0 0 32 36"
   xml:space="preserve"
   width="32"
   height="36"
   class="br-symbol-library"
   sodipodi:docname="usbdrive.svg"
   inkscape:version="0.92.3 (2405546, 2018-03-11)"><metadata
   id="metadata11"><rdf:RDF><cc:Work
       rdf:about=""><dc:format>image/svg+xml</dc:format><dc:type
         rdf:resource="http://purl.org/dc/dcmitype/StillImage" /><dc:title /></cc:Work></rdf:RDF></metadata><defs
   id="defs9" /><sodipodi:namedview
   pagecolor="#ffffff"
   bordercolor="#666666"
   borderopacity="1"
   objecttolerance="10"
   gridtolerance="10"
   guidetolerance="10"
   inkscape:pageopacity="0"
   inkscape:pageshadow="2"
   inkscape:window-width="1920"
   inkscape:window-height="1017"
   id="namedview7"
   showgrid="false"
   inkscape:zoom="14.75"
   inkscape:cx="15.848272"
   inkscape:cy="20.059412"
   inkscape:window-x="-8"
   inkscape:window-y="-8"
   inkscape:window-maximized="1"
   inkscape:current-layer="Ebene_1" />
<g
   id="Package"
   transform="matrix(1,0,0,0.8516587,0.09587889,-1.0588061)"
   style="fill:#000000;fill-opacity:1">
	<path
   d="m 32,29.292 c 0,0.736 -0.597,1.333 -1.333,1.333 H 1.333 C 0.597,30.625 0,30.028 0,29.292 V 10.708 C 0,9.972 0.597,9.375 1.333,9.375 H 30.666 C 31.403,9.375 32,9.972 32,10.708 Z M 29.295,4.125 H 15.513 L 15.051,2.683 C 14.815,1.986 14.028,1.375 13.295,1.375 H 6.628 c -0.733,0 -1.524,0.611 -1.755,1.308 L 4.406,4.125 H 2.628 C 1.895,4.125 1.25,4.684 1.25,5.418 v 2.707 h 29.5 V 5.418 c 0,-0.734 -0.722,-1.293 -1.455,-1.293 z"
   id="path2"
   inkscape:connector-curvature="0"
   style="fill:#000000;fill-opacity:1" />
</g>
<g
   id="Ebene_1_1_"
   transform="translate(0,4)">
</g>
<rect
   id="rect13"
   width="1.8866525"
   height="12.755301"
   x="15.544934"
   y="20.419094"
   style="stroke-width:2.06820035"
   ry="0.46786293" /><rect
   id="rect17"
   width="31.718052"
   height="2.7981861"
   x="0.3869226"
   y="31.609447"
   style="stroke-width:2.00725484"
   ry="1.399093"
   rx="0.35590202" /><rect
   style="fill:#05c805;fill-opacity:1;stroke-width:2.15925097"
   id="rect51"
   width="13.647551"
   height="5.5555291"
   x="9.6348152"
   y="30.105486"
   ry="1.4219837" /><rect
   style="fill:#05c805;fill-opacity:1;stroke-width:1.43460727"
   id="rect51-2"
   width="8.4538136"
   height="3.9590151"
   x="-35.049732"
   y="15.170666"
   ry="1.0133427"
   transform="matrix(0.02694682,-0.99963687,0.99997592,0.00694013,0,0)" /><g
   id="g838"
   transform="matrix(0.49230472,0,0,0.49230472,8.963946,8.1114761)"
   style="fill:#ffffff"><g
     id="USB"
     style="fill:#ffffff">
	<path
   d="m 15,32 c -0.2,0 -0.5,-0.1 -0.7,-0.2 -1.5,-0.4 -2.5,-1.8 -2.6,-3.3 -0.1,-1.5 0.7,-3 2.1,-3.6 0.2,-0.1 0.3,-0.2 0.3,-0.5 0,-0.6 -0.3,-1.1 -0.8,-1.4 C 12.6,22.7 11.8,22.4 11,22.1 9.9,21.7 8.7,21.5 7.6,20.8 6.3,20 5.5,18.9 5.5,17.4 c 0,-0.9 0,-1.8 0,-2.7 C 5.5,14.4 5.4,14.3 5.2,14.1 3.8,13 4,10.8 5.6,10 6.7,9.5 8,9.8 8.7,10.8 9.4,11.8 9.2,13.3 8.3,14 8.1,14.3 8,14.6 8,14.9 c 0,0.7 0,1.3 0,2 -0.1,1.1 0.4,1.8 1.4,2.1 0.7,0.3 1.5,0.5 2.2,0.8 0.8,0.3 1.7,0.6 2.5,0.8 0,-4.8 0,-9.7 0,-14.5 -0.8,0 -1.6,0 -2.4,0 1.2,-2 2.4,-4.1 3.7,-6.1 1.2,2.1 2.4,4.1 3.7,6.1 -0.7,0 -1.4,0 -2,0 -0.4,0 -0.4,-0.1 -0.4,0.4 0,3.4 0,6.8 0,10.2 0,0.1 0,0.3 0,0.4 0.8,-0.2 1.1,-0.4 1.7,-0.6 1.3,-0.4 2.7,-0.7 4,-1.1 0.4,-0.1 0.8,-0.4 1.2,-0.6 0.4,-0.2 0.6,-0.6 0.6,-1 0,-0.9 0,-1.8 0,-2.6 -0.4,0 -0.6,0 -1.1,0 0,-1.8 0,-3.3 0,-5 1.5,0 3.3,0 4.8,0 0,1.5 0,3.3 0,4.8 -0.3,0 -0.7,0 -1.1,0 0,0.3 0,0.3 0,0.4 0,0.7 0,1.4 0,2.1 0,1.7 -0.8,3 -2.3,3.8 -1.2,0.6 -2.5,0.9 -3.8,1.3 -0.9,0.3 -1.8,0.5 -2.6,0.9 -0.7,0.3 -1.1,0.8 -1.1,1.6 0,1.2 0,2.4 0,3.6 0,0.2 0.1,0.2 0.2,0.3 1.4,0.7 2.3,2 2.2,3.6 -0.1,1.7 -1.4,3.2 -3.1,3.4 -0.1,0 -0.2,0.1 -0.2,0.1 C 15.5,32 15.3,32 15,32 Z"
   id="USB_3_"
   inkscape:connector-curvature="0"
   style="fill:#ffffff" />
</g><g
     id="Ebene_1_1_-6"
     style="fill:#ffffff">
</g></g></svg>