<?xml version="1.0" encoding="UTF-8"?>
<svg width="32" height="32" data-name="Layer 1" version="1.1" viewBox="0 0 32 32" xmlns="http://www.w3.org/2000/svg" xmlns:cc="http://creativecommons.org/ns#" xmlns:dc="http://purl.org/dc/elements/1.1/" xmlns:rdf="http://www.w3.org/1999/02/22-rdf-syntax-ns#">
 <title>mechanics-units</title>
 <path fill="#f80" d="m22.619 2.5008 6.5389 6.5432a0.63804 0.63804 0 0 1 0.07596 0.09549 0.612 0.612 0 0 1 0.10634 0.34723 0.61851 0.61851 0 0 1-0.1823 0.43404l-18.881 18.881a0.65107 0.65107 0 0 1-0.11719 0.08897 0.60115 0.60115 0 0 1-0.32336 0.09332 0.62936 0.62936 0 0 1-0.43404-0.1823l-6.5389-6.5454a0.62719 0.62719 0 0 1 0-0.88328l18.881-18.881a0.62502 0.62502 0 0 1 0.43404-0.1823 0.612 0.612 0 0 1 0.43404 0.18447zm-11.849 24.172-1.7166-1.7166 0.82468-0.82468 1.7166 1.7166 0.92234-0.92234-3.1078-3.1121 0.82468-0.82468 3.1121 3.1121 0.92234-0.92017-1.7166-1.7188 0.82468-0.82468 1.7166 1.7166 0.92234-0.92017-3.1186-3.1143 0.82468-0.82468 3.1143 3.1143 0.92234-0.93102-1.7166-1.7166 0.82468-0.82468 1.7166 1.7166 0.92234-0.91149-3.1143-3.1164 0.82468-0.82468 3.1143 3.1143 0.92017-0.92234-1.7166-1.7232 0.82468-0.82468 1.7166 1.7166 0.92234-0.92234-3.1121-3.1056 0.82468-0.82468 3.1121 3.1121 4.1364-4.1429-5.7793-5.7706-18.106 18.106 5.7706 5.7793 0.918-0.92017zm13.18-18.158a0.80081 0.80081 0 0 0-0.80081-0.80081 0.80081 0.80081 0 0 0-0.56642 1.3672l0.01737 0.019532a0.80515 0.80515 0 0 0 1.1155-0.019532l0.01737-0.017362a0.79864 0.79864 0 0 0 0.21702-0.54906zm0.37111-1.1719a1.6559 1.6559 0 0 1 0.02604 2.3178l-0.02604 0.028213a1.658 1.658 0 0 1-2.3243 0.023872l-0.01953-0.017362a1.6581 1.6581 0 0 1 2.346-2.3438z" stroke-width=".21702"/>
</svg>
