<?xml version="1.0" encoding="UTF-8"?><svg id="pictogram" xmlns="http://www.w3.org/2000/svg" viewBox="0 0 154 48"><path d="m77.84,3.46c1.06,0,1.99.28,2.77.83.78.55,1.38,1.35,1.8,2.39.52-1.04,1.27-1.84,2.25-2.39s2.12-.83,3.41-.83c1.81,0,3.24.6,4.27,1.8,1.03,1.2,1.55,2.86,1.55,4.99v9.45h-4.41v-9.17c0-2.17-.91-3.25-2.72-3.25-.98,0-1.74.33-2.28.99-.54.66-.81,1.6-.81,2.83v8.61h-4.41v-9.17c0-2.17-.91-3.25-2.72-3.25-.98,0-1.74.34-2.29,1.03-.54.69-.81,1.68-.81,2.97v8.42h-4.41V3.9h4.04v2.16c.48-.83,1.13-1.48,1.96-1.92.82-.45,1.77-.67,2.83-.67Z"/><path d="m110.07,19.7c-.77,0-1.37-.15-1.8-.44-.43-.29-.7-.76-.83-1.41-.5.75-1.19,1.33-2.08,1.72-.89.4-1.89.59-3.02.59-1.69,0-3.03-.44-4.01-1.33-.98-.89-1.47-2.09-1.47-3.62,0-1.71.63-3.04,1.88-3.99,1.25-.95,3.03-1.42,5.32-1.42h2.54c-.06-1.02-.37-1.76-.92-2.22-.55-.46-1.4-.69-2.55-.69-1.44,0-2.83.41-4.16,1.22l-1.25-2.91c.73-.54,1.62-.97,2.68-1.28,1.05-.31,2.16-.47,3.33-.47,2.3,0,4.08.59,5.35,1.77,1.27,1.18,1.91,2.82,1.91,4.93v5.95h1.91v3.6h-2.82Zm-9.01-4.98c0,.67.21,1.18.64,1.55.43.37,1.03.55,1.8.55.94,0,1.69-.29,2.27-.88.57-.58.86-1.37.86-2.35v-.94h-2.22c-1.17,0-2.02.17-2.55.5-.53.33-.8.86-.8,1.57Z"/><path d="m115.52,26.03V3.9h4.29v2.13c.58-.81,1.32-1.45,2.21-1.89.89-.45,1.87-.67,2.96-.67,1.44,0,2.71.37,3.82,1.1,1.11.73,1.96,1.73,2.55,2.99.59,1.26.89,2.69.89,4.27,0,1.67-.32,3.14-.96,4.41-.64,1.27-1.5,2.25-2.6,2.93s-2.33,1.02-3.71,1.02c-1.08,0-2.06-.21-2.93-.64-.87-.43-1.57-1.06-2.11-1.89v8.39h-4.41Zm8.26-9.7c1.17,0,2.12-.42,2.85-1.25.73-.83,1.1-1.92,1.1-3.25s-.37-2.42-1.1-3.25-1.68-1.25-2.85-1.25-2.19.42-2.94,1.25-1.13,1.92-1.13,3.25.38,2.42,1.13,3.25c.75.83,1.73,1.25,2.94,1.25Z"/><path d="m135.33,26.03V3.9h4.29v2.13c.58-.81,1.32-1.45,2.21-1.89.89-.45,1.87-.67,2.96-.67,1.44,0,2.71.37,3.82,1.1,1.11.73,1.96,1.73,2.55,2.99.59,1.26.89,2.69.89,4.27,0,1.67-.32,3.14-.95,4.41-.64,1.27-1.5,2.25-2.6,2.93-1.09.68-2.33,1.02-3.71,1.02-1.08,0-2.06-.21-2.93-.64-.87-.43-1.57-1.06-2.11-1.89v8.39h-4.41Zm8.26-9.7c1.17,0,2.12-.42,2.85-1.25.73-.83,1.1-1.92,1.1-3.25s-.37-2.42-1.1-3.25-1.68-1.25-2.85-1.25-2.19.42-2.94,1.25c-.75.83-1.13,1.92-1.13,3.25s.38,2.42,1.13,3.25c.75.83,1.73,1.25,2.94,1.25Z"/><path d="m75.58,34.88c-.33-.25-.75-.45-1.26-.61-.51-.16-1-.23-1.48-.23-.85,0-1.52.17-2,.51-.48.34-.72.82-.72,1.44,0,1.05.77,1.72,2.31,2.01l.87.17c1.03.21,1.79.55,2.28,1.03s.73,1.12.73,1.93c0,.92-.34,1.62-1.01,2.12-.68.5-1.63.75-2.85.75-.67,0-1.31-.1-1.92-.29-.61-.19-1.12-.45-1.51-.77l.41-.75c.36.28.82.5,1.37.67.55.17,1.11.25,1.68.25.94,0,1.65-.17,2.14-.5s.73-.82.73-1.47c0-.57-.19-1.03-.57-1.37-.38-.34-.98-.59-1.8-.75l-.83-.16c-1.02-.2-1.77-.53-2.26-.98-.49-.46-.73-1.08-.73-1.86,0-.87.33-1.57.99-2.1.66-.52,1.54-.79,2.64-.79.6,0,1.19.09,1.77.27.58.18,1.06.42,1.44.73l-.42.73Z"/><path d="m83.57,35.99h1.15l-3.48,3.35,3.98,4.46h-1.14l-3.45-3.88-1.09,1.06v2.82h-.89v-11.22h.89v7.29l4.02-3.88Z"/><path d="m89.2,44.79c-.24.6-.48,1.07-.71,1.41s-.5.58-.81.73c-.31.15-.71.23-1.19.23-.41,0-.72-.06-.95-.19l.12-.73c.21.08.47.12.78.12.5,0,.88-.12,1.15-.34.27-.23.53-.66.78-1.29l.34-.87-3.15-7.86h.94l2.61,6.82,2.62-6.82h.92l-3.45,8.8Z"/><path d="m94.16,43.8v-11.22h.89v11.22h-.89Z"/><path d="m98.26,43.8v-7h-1.33v-.81h1.36c.3,0,.52.07.66.2.13.14.2.35.2.66v6.96h-.89Zm.23-9.66c-.22,0-.4-.07-.53-.21-.14-.14-.2-.31-.2-.52s.07-.38.2-.52c.13-.14.31-.21.53-.21s.4.07.53.21.2.31.2.52-.07.38-.2.52-.31.21-.53.21Z"/><path d="m107.5,43.8v-4.63c0-.82-.19-1.45-.57-1.9-.38-.44-.92-.66-1.61-.66-.79,0-1.42.25-1.88.74s-.69,1.16-.69,2v4.45h-.89v-7.82h.87v1.31c.25-.49.6-.86,1.06-1.12.46-.26,1-.39,1.62-.39.96,0,1.69.29,2.21.87.51.58.77,1.4.77,2.47v4.68h-.89Z"/><path d="m117.36,43.15c-.33.27-.75.48-1.25.63s-1.04.23-1.64.23c-1.22,0-2.18-.37-2.89-1.11-.71-.74-1.07-1.74-1.07-3.01,0-.8.16-1.52.49-2.14s.77-1.11,1.33-1.45c.56-.34,1.19-.51,1.87-.51.99,0,1.78.34,2.37,1.03.59.69.89,1.61.89,2.78v.5h-6.07c.03.98.32,1.74.86,2.29.54.55,1.28.82,2.21.82.51,0,.99-.06,1.44-.2.45-.13.82-.31,1.12-.55l.33.7Zm-3.18-6.55c-.75,0-1.38.25-1.88.75-.5.5-.8,1.16-.88,2h5.18c-.03-.85-.26-1.52-.69-2.01-.43-.49-1.01-.73-1.72-.73Z"/><polygon points="27 13 39 13 39 30 41 30 41 12 40 11 26 11 25 12 25 30 27 30 27 13"/><polygon points="6 31 11 31 12 30 12 4 19 4 19 37 21 37 21 3 20 2 11 2 10 3 10 29 5 29 4 30 4 45 5 46 13 46 13 44 6 44 6 31"/><rect x="14" y="6" width="3" height="2"/><rect x="14" y="10" width="3" height="2"/><rect x="14" y="14" width="3" height="2"/><rect x="14" y="18" width="3" height="2"/><rect x="29" y="15" width="3" height="2"/><rect x="29" y="19" width="3" height="2"/><rect x="29" y="23" width="3" height="2"/><rect x="29" y="27" width="3" height="2"/><rect x="34" y="15" width="3" height="2"/><rect x="34" y="19" width="3" height="2"/><rect x="34" y="23" width="3" height="2"/><rect x="34" y="27" width="3" height="2"/><path d="m47,31.92h-4l-1,1v.51l-4.38-1.46-.32-.05h-11.92c-1.35,0-2.55.84-2.93,2.05-.3.95-.15,1.94.43,2.72.56.77,1.47,1.23,2.42,1.23h1.39l-1.67,1h-7.64c-1.35,0-2.55.84-2.93,2.05-.3.95-.15,1.94.43,2.72.56.77,1.47,1.23,2.42,1.23h8l8.06-1h8.64v1l1,1h4l1-1v-12l-1-1Zm-13.7,10l-8.06,1h-7.94c-.32,0-.62-.15-.81-.41-.11-.15-.28-.48-.14-.94.12-.38.55-.65,1.03-.65h7.92l.51-.14,4.76-2.86h2.42v-2h-7.7c-.32,0-.62-.15-.81-.41-.11-.15-.28-.48-.14-.94.12-.38.55-.65,1.03-.65h11.75l4.86,1.62v6.38h-8.7Zm12.7,2h-2v-10h2v10Z"/></svg>