<?xml version="1.0" encoding="UTF-8"?><svg id="pictogram" xmlns="http://www.w3.org/2000/svg" viewBox="0 0 155 48"><g><polygon points="26 19 26 21 33 21 33 28 35 28 35 21 42 21 42 19 35 19 35 12 33 12 33 19 26 19"/><path d="m45,32h-4l-1,1v.51l-4.38-1.46-.32-.05h-11.92c-1.35,0-2.55.84-2.93,2.05-.3.95-.15,1.94.43,2.73.56.77,1.47,1.23,2.42,1.23h1.39l-1.67,1h-7.64c-1.35,0-2.55.84-2.93,2.05-.3.95-.15,1.94.43,2.73.56.77,1.47,1.23,2.42,1.23h8l8.06-1h8.64v1l1,1h4l1-1v-12l-1-1Zm-13.7,10l-8.06,1h-7.94c-.32,0-.62-.15-.81-.41-.11-.15-.28-.48-.14-.94.12-.38.55-.65,1.03-.65h7.92l.51-.14,4.76-2.86h2.42v-2h-7.7c-.32,0-.62-.15-.81-.41-.11-.15-.28-.48-.14-.94.12-.38.55-.65,1.03-.65h11.75l4.86,1.62v6.38h-8.7Zm12.7,2h-2v-10h2v10Z"/><path d="m17,36v-4h3l1-1v-5l-1-1h-3v-2h3l1-1v-5l-1-1h-3v-2h12l1-1V3l-1-1H10l-1,1v4.98l-2.01.02-.99,1v8.99l-2.99-.03-1.01,1v10.03l1,1h3v6l1,1h9l1-1Zm2-9v3h-2v-3h2Zm0-9v3h-2v-3h2Zm-4,17h-7v-5.99l-1-1h-3v-8.03l2.99.03,1.01-1v-9.01l2.01-.02.99-1v-4.97h17v8h-12l-1,1v22Z"/></g><g><path d="m76.81,3.56c1.06,0,1.98.28,2.76.83.78.55,1.38,1.35,1.8,2.39.52-1.04,1.27-1.84,2.25-2.39.98-.55,2.11-.83,3.4-.83,1.81,0,3.23.6,4.26,1.8,1.03,1.2,1.55,2.86,1.55,4.98v9.43h-4.4v-9.15c0-2.16-.91-3.25-2.72-3.25-.98,0-1.74.33-2.28.98-.54.66-.81,1.6-.81,2.83v8.59h-4.4v-9.15c0-2.16-.91-3.25-2.72-3.25-.98,0-1.74.34-2.28,1.03-.54.69-.81,1.68-.81,2.97v8.4h-4.4V4h4.03v2.15c.48-.83,1.13-1.47,1.95-1.92s1.76-.67,2.83-.67Z"/><path d="m108.97,19.77c-.77,0-1.37-.15-1.79-.44-.43-.29-.7-.76-.83-1.4-.5.75-1.19,1.32-2.08,1.72-.89.4-1.89.59-3.01.59-1.69,0-3.02-.44-4-1.33s-1.47-2.09-1.47-3.61c0-1.71.62-3.03,1.87-3.98,1.25-.95,3.02-1.42,5.31-1.42h2.53c-.06-1.02-.37-1.76-.92-2.22-.55-.46-1.4-.69-2.54-.69-1.44,0-2.82.41-4.15,1.22l-1.25-2.9c.73-.54,1.62-.97,2.67-1.28,1.05-.31,2.16-.47,3.32-.47,2.29,0,4.07.59,5.34,1.76,1.27,1.18,1.9,2.82,1.9,4.92v5.93h1.9v3.59h-2.81Zm-8.99-4.96c0,.67.21,1.18.64,1.54.43.36,1.02.55,1.8.55.94,0,1.69-.29,2.26-.87.57-.58.86-1.36.86-2.34v-.94h-2.22c-1.17,0-2.01.17-2.54.5-.53.33-.8.85-.8,1.56Z"/><path d="m114.4,26.07V4h4.28v2.12c.58-.81,1.32-1.44,2.2-1.89s1.87-.67,2.95-.67c1.44,0,2.71.36,3.81,1.09,1.1.73,1.95,1.72,2.54,2.98.59,1.26.89,2.68.89,4.26,0,1.66-.32,3.13-.95,4.4-.63,1.27-1.5,2.24-2.59,2.92-1.09.68-2.33,1.02-3.7,1.02-1.08,0-2.06-.21-2.92-.64-.86-.43-1.57-1.06-2.11-1.89v8.37h-4.4Zm8.24-9.68c1.17,0,2.11-.42,2.84-1.25.73-.83,1.09-1.91,1.09-3.25s-.36-2.41-1.09-3.25c-.73-.83-1.68-1.25-2.84-1.25s-2.19.42-2.94,1.25c-.75.83-1.12,1.91-1.12,3.25s.38,2.41,1.12,3.25c.75.83,1.73,1.25,2.94,1.25Z"/><path d="m134.16,26.07V4h4.28v2.12c.58-.81,1.32-1.44,2.2-1.89s1.87-.67,2.95-.67c1.44,0,2.71.36,3.81,1.09,1.1.73,1.95,1.72,2.54,2.98.59,1.26.89,2.68.89,4.26,0,1.66-.32,3.13-.95,4.4-.63,1.27-1.5,2.24-2.59,2.92-1.09.68-2.33,1.02-3.7,1.02-1.08,0-2.06-.21-2.92-.64-.86-.43-1.57-1.06-2.11-1.89v8.37h-4.4Zm8.24-9.68c1.17,0,2.11-.42,2.84-1.25.73-.83,1.09-1.91,1.09-3.25s-.36-2.41-1.09-3.25c-.73-.83-1.68-1.25-2.84-1.25s-2.19.42-2.94,1.25c-.75.83-1.12,1.91-1.12,3.25s.38,2.41,1.12,3.25c.75.83,1.73,1.25,2.94,1.25Z"/></g><g><path d="m68.9,43.99h-.9v-10.05h.9v10.05Z"/><path d="m76.32,44.19c-.95,0-1.79-.23-2.54-.7-.74-.46-1.31-1.09-1.71-1.88s-.6-1.67-.6-2.64c0-1.03.22-1.94.65-2.74s1.02-1.41,1.75-1.84c.73-.43,1.54-.65,2.44-.65.95,0,1.79.23,2.54.7.74.47,1.31,1.09,1.71,1.88.4.79.6,1.67.6,2.64,0,1.03-.22,1.94-.65,2.74s-1.02,1.41-1.75,1.84c-.73.43-1.54.65-2.44.65Zm0-.86c.76,0,1.44-.2,2.03-.58.59-.39,1.05-.92,1.38-1.58.32-.66.49-1.39.49-2.21s-.17-1.61-.52-2.28-.82-1.19-1.41-1.54c-.59-.36-1.24-.54-1.96-.54-.76,0-1.44.19-2.03.58-.6.39-1.06.92-1.38,1.57-.32.66-.49,1.4-.49,2.21,0,.85.17,1.61.52,2.28s.82,1.19,1.41,1.54c.59.36,1.25.54,1.96.54Z"/></g></svg>