<?xml version="1.0" encoding="UTF-8"?><svg id="pictogram" xmlns="http://www.w3.org/2000/svg" viewBox="0 0 154 48"><path d="m77.83,3.46c1.06,0,1.99.28,2.77.83s1.38,1.35,1.8,2.39c.52-1.04,1.27-1.84,2.25-2.39.98-.55,2.12-.83,3.41-.83,1.82,0,3.24.6,4.27,1.8,1.03,1.2,1.55,2.86,1.55,4.99v9.45h-4.41v-9.17c0-2.17-.91-3.25-2.72-3.25-.98,0-1.74.33-2.29.99s-.81,1.6-.81,2.83v8.61h-4.41v-9.17c0-2.17-.91-3.25-2.72-3.25-.98,0-1.74.34-2.29,1.03s-.81,1.68-.81,2.97v8.42h-4.41V3.9h4.04v2.16c.48-.83,1.13-1.48,1.96-1.92.82-.45,1.77-.67,2.83-.67Z"/><path d="m110.07,19.7c-.77,0-1.37-.15-1.8-.44-.43-.29-.7-.76-.83-1.41-.5.75-1.2,1.33-2.08,1.72-.89.4-1.89.59-3.02.59-1.69,0-3.03-.44-4.01-1.33-.98-.89-1.47-2.09-1.47-3.62,0-1.71.63-3.04,1.88-3.99,1.25-.95,3.03-1.42,5.32-1.42h2.54c-.06-1.02-.37-1.76-.92-2.22-.55-.46-1.4-.69-2.55-.69-1.44,0-2.83.41-4.16,1.22l-1.25-2.91c.73-.54,1.62-.97,2.68-1.28,1.05-.31,2.16-.47,3.33-.47,2.3,0,4.08.59,5.35,1.77,1.27,1.18,1.91,2.82,1.91,4.93v5.95h1.91v3.6h-2.82Zm-9.01-4.98c0,.67.21,1.18.64,1.55.43.37,1.03.55,1.8.55.94,0,1.7-.29,2.27-.88.57-.58.86-1.37.86-2.35v-.94h-2.22c-1.17,0-2.02.17-2.55.5-.53.33-.8.86-.8,1.57Z"/><path d="m115.52,26.03V3.9h4.29v2.13c.58-.81,1.32-1.45,2.21-1.89.89-.45,1.87-.67,2.96-.67,1.44,0,2.71.37,3.82,1.1,1.11.73,1.96,1.73,2.55,2.99.59,1.26.89,2.69.89,4.27,0,1.67-.32,3.14-.96,4.41-.64,1.27-1.5,2.25-2.6,2.93s-2.33,1.02-3.71,1.02c-1.08,0-2.06-.21-2.93-.64-.87-.43-1.57-1.06-2.11-1.89v8.39h-4.41Zm8.26-9.7c1.17,0,2.12-.42,2.85-1.25.73-.83,1.1-1.92,1.1-3.25s-.37-2.42-1.1-3.25-1.68-1.25-2.85-1.25-2.19.42-2.94,1.25-1.13,1.92-1.13,3.25.38,2.42,1.13,3.25c.75.83,1.73,1.25,2.94,1.25Z"/><path d="m135.33,26.03V3.9h4.29v2.13c.58-.81,1.32-1.45,2.21-1.89.89-.45,1.87-.67,2.96-.67,1.44,0,2.71.37,3.82,1.1,1.11.73,1.96,1.73,2.55,2.99.59,1.26.89,2.69.89,4.27,0,1.67-.32,3.14-.95,4.41-.64,1.27-1.5,2.25-2.6,2.93-1.09.68-2.33,1.02-3.71,1.02-1.08,0-2.06-.21-2.93-.64-.87-.43-1.57-1.06-2.11-1.89v8.39h-4.41Zm8.26-9.7c1.17,0,2.12-.42,2.85-1.25.73-.83,1.1-1.92,1.1-3.25s-.37-2.42-1.1-3.25-1.68-1.25-2.85-1.25-2.19.42-2.94,1.25c-.75.83-1.13,1.92-1.13,3.25s.38,2.42,1.13,3.25c.75.83,1.73,1.25,2.94,1.25Z"/><path d="m69.64,33.35h3.43c1.08,0,1.94.27,2.58.81s.96,1.27.96,2.2c0,.77-.23,1.41-.68,1.93-.45.51-1.08.84-1.88.99l3.18,4.52h-1.16l-3.07-4.43h-2.43v4.43h-.94v-10.45Zm3.42,5.16c.83,0,1.47-.19,1.92-.56.45-.38.67-.91.67-1.59s-.22-1.22-.67-1.59c-.45-.38-1.09-.56-1.92-.56h-2.48v4.31h2.48Z"/><path d="m85.08,43.15c-.33.27-.75.48-1.25.63s-1.05.23-1.64.23c-1.22,0-2.18-.37-2.89-1.11-.71-.74-1.07-1.74-1.07-3.01,0-.8.16-1.52.49-2.14.33-.63.77-1.11,1.33-1.45.56-.34,1.19-.51,1.87-.51.99,0,1.78.34,2.37,1.03.59.69.89,1.61.89,2.78v.5h-6.07c.03.98.32,1.74.86,2.29s1.28.82,2.21.82c.51,0,.99-.06,1.44-.2.45-.13.82-.31,1.12-.55l.33.7Zm-3.18-6.55c-.75,0-1.38.25-1.88.75-.5.5-.8,1.16-.88,2h5.18c-.03-.85-.26-1.52-.69-2.01-.43-.49-1.01-.73-1.72-.73Z"/><path d="m90.51,44.01c-1.11,0-2.02-.38-2.71-1.14-.7-.76-1.04-1.75-1.04-2.96,0-.82.16-1.54.49-2.17.33-.62.77-1.1,1.34-1.44.57-.34,1.21-.51,1.93-.51,1.19,0,2.1.32,2.75.97l-.45.67c-.57-.54-1.33-.81-2.28-.81-.85,0-1.54.3-2.07.9-.53.6-.79,1.4-.79,2.39s.26,1.77.79,2.37c.53.6,1.21.9,2.07.9.49,0,.95-.08,1.39-.23.44-.15.78-.35,1.01-.58l.39.7c-.31.29-.71.52-1.2.69s-1.02.25-1.61.25Z"/><path d="m95.64,43.8v-7h-1.33v-.81h1.36c.3,0,.52.07.66.2.13.14.2.35.2.66v6.96h-.89Zm.23-9.66c-.22,0-.4-.07-.53-.21-.14-.14-.2-.31-.2-.52s.07-.38.2-.52c.13-.14.31-.21.53-.21s.39.07.53.21c.13.14.2.31.2.52s-.07.38-.2.52c-.14.14-.31.21-.53.21Z"/><path d="m99.23,46.96v-10.97h.89v1.59c.3-.56.72-1,1.25-1.32.53-.32,1.12-.48,1.78-.48.72,0,1.36.18,1.92.55.56.37,1,.87,1.3,1.49s.46,1.32.46,2.07c0,.8-.17,1.51-.5,2.14s-.78,1.11-1.33,1.45c-.56.34-1.17.51-1.85.51s-1.26-.15-1.79-.46c-.53-.31-.94-.74-1.23-1.3v4.71h-.89Zm3.84-3.78c.55,0,1.04-.15,1.48-.44.44-.3.77-.69,1.01-1.19.23-.49.35-1.04.35-1.65,0-.64-.13-1.22-.38-1.72s-.6-.89-1.03-1.16-.91-.41-1.43-.41c-.57,0-1.08.15-1.54.44-.45.3-.8.69-1.05,1.19s-.37,1.05-.37,1.65c0,.65.13,1.22.41,1.72.27.5.63.88,1.08,1.15s.94.41,1.48.41Z"/><path d="m115.33,43.15c-.33.27-.75.48-1.25.63s-1.05.23-1.64.23c-1.22,0-2.18-.37-2.89-1.11-.71-.74-1.07-1.74-1.07-3.01,0-.8.16-1.52.49-2.14.33-.63.77-1.11,1.33-1.45.56-.34,1.19-.51,1.87-.51.99,0,1.78.34,2.37,1.03.59.69.89,1.61.89,2.78v.5h-6.07c.03.98.32,1.74.86,2.29s1.28.82,2.21.82c.51,0,.99-.06,1.44-.2.45-.13.82-.31,1.12-.55l.33.7Zm-3.18-6.55c-.75,0-1.38.25-1.88.75-.5.5-.8,1.16-.88,2h5.18c-.03-.85-.26-1.52-.69-2.01-.43-.49-1.01-.73-1.72-.73Z"/><path d="m47,31.92h-4l-1,1v.51l-4.38-1.46-.32-.05h-11.92c-1.35,0-2.55.84-2.93,2.05-.3.95-.15,1.94.43,2.72.56.77,1.47,1.23,2.42,1.23h1.39l-1.67,1h-7.64c-1.35,0-2.55.84-2.93,2.05-.3.95-.15,1.94.43,2.72.56.77,1.47,1.23,2.42,1.23h8l8.06-1h8.64v1l1,1h4l1-1v-12l-1-1Zm-13.7,10l-8.06,1h-7.94c-.32,0-.62-.15-.81-.41-.11-.15-.28-.48-.14-.94.12-.38.55-.65,1.03-.65h7.92l.51-.14,4.76-2.86h2.42v-2h-7.7c-.32,0-.62-.15-.81-.41-.11-.15-.28-.48-.14-.94.12-.38.55-.65,1.03-.65h11.75l4.86,1.62v6.38h-8.7Zm12.7,2h-2v-10h2v10Z"/><path d="m15.55,35.71l4.22-4.22.29-.71v-9.84l-1-1h-10.04l-.71.29-4.02,4.02-.29.71v10.05l1,1h9.84l.71-.29Zm.49-3.32v-7.11l2.02-1.97v7.06l-2.02,2.02Zm-6.61-10.45h7.17l-2.07,2.02h-7.12l2.02-2.02Zm-3.43,4.02h8.05v8.05H6v-8.05Z"/><path d="m23.78,18.06l.71-.29,4.22-4.22.29-.71V3l-1-1h-10.05l-.71.29-4.02,4.02-.29.71v10.04l1,1h9.84Zm-8.84-10.04h8.04v8.04h-8.04v-8.04Zm10.04,6.43v-7.11l2.02-1.97v7.06l-2.02,2.02Zm-6.61-10.45h7.17l-2.07,2.02h-7.12l2.02-2.02Z"/><path d="m26,19.02v10.04l1,1h9.84l.71-.29,4.22-4.22.29-.71v-9.84l-1-1h-10.04l-.71.29-4.02,4.02-.29.71Zm2,1h8.05v8.04h-8.05v-8.04Zm10.05,6.43v-7.11l2.02-1.97v7.06l-2.02,2.02Zm-6.61-10.45h7.17l-2.07,2.02h-7.12l2.02-2.02Z"/></svg>