<?xml version="1.0" encoding="UTF-8"?><svg id="pictogram" xmlns="http://www.w3.org/2000/svg" viewBox="0 0 154 48"><path d="m77.84,3.46c1.06,0,1.99.28,2.77.83.78.55,1.38,1.35,1.8,2.39.52-1.04,1.27-1.84,2.25-2.39s2.12-.83,3.41-.83c1.81,0,3.24.6,4.27,1.8,1.03,1.2,1.55,2.86,1.55,4.99v9.45h-4.41v-9.17c0-2.17-.91-3.25-2.72-3.25-.98,0-1.74.33-2.28.99-.54.66-.81,1.6-.81,2.83v8.61h-4.41v-9.17c0-2.17-.91-3.25-2.72-3.25-.98,0-1.74.34-2.29,1.03-.54.69-.81,1.68-.81,2.97v8.42h-4.41V3.9h4.04v2.16c.48-.83,1.13-1.48,1.96-1.92.82-.45,1.77-.67,2.83-.67Z"/><path d="m110.07,19.7c-.77,0-1.37-.15-1.8-.44-.43-.29-.7-.76-.83-1.41-.5.75-1.19,1.33-2.08,1.72-.89.4-1.89.59-3.02.59-1.69,0-3.03-.44-4.01-1.33-.98-.89-1.47-2.09-1.47-3.62,0-1.71.63-3.04,1.88-3.99,1.25-.95,3.03-1.42,5.32-1.42h2.54c-.06-1.02-.37-1.76-.92-2.22-.55-.46-1.4-.69-2.55-.69-1.44,0-2.83.41-4.16,1.22l-1.25-2.91c.73-.54,1.62-.97,2.68-1.28,1.05-.31,2.16-.47,3.33-.47,2.3,0,4.08.59,5.35,1.77,1.27,1.18,1.91,2.82,1.91,4.93v5.95h1.91v3.6h-2.82Zm-9.01-4.98c0,.67.21,1.18.64,1.55.43.37,1.03.55,1.8.55.94,0,1.69-.29,2.27-.88.57-.58.86-1.37.86-2.35v-.94h-2.22c-1.17,0-2.02.17-2.55.5-.53.33-.8.86-.8,1.57Z"/><path d="m115.52,26.03V3.9h4.29v2.13c.58-.81,1.32-1.45,2.21-1.89.89-.45,1.87-.67,2.96-.67,1.44,0,2.71.37,3.82,1.1,1.11.73,1.96,1.73,2.55,2.99.59,1.26.89,2.69.89,4.27,0,1.67-.32,3.14-.96,4.41-.64,1.27-1.5,2.25-2.6,2.93s-2.33,1.02-3.71,1.02c-1.08,0-2.06-.21-2.93-.64-.87-.43-1.57-1.06-2.11-1.89v8.39h-4.41Zm8.26-9.7c1.17,0,2.12-.42,2.85-1.25.73-.83,1.1-1.92,1.1-3.25s-.37-2.42-1.1-3.25-1.68-1.25-2.85-1.25-2.19.42-2.94,1.25-1.13,1.92-1.13,3.25.38,2.42,1.13,3.25c.75.83,1.73,1.25,2.94,1.25Z"/><path d="m135.33,26.03V3.9h4.29v2.13c.58-.81,1.32-1.45,2.21-1.89.89-.45,1.87-.67,2.96-.67,1.44,0,2.71.37,3.82,1.1,1.11.73,1.96,1.73,2.55,2.99.59,1.26.89,2.69.89,4.27,0,1.67-.32,3.14-.95,4.41-.64,1.27-1.5,2.25-2.6,2.93-1.09.68-2.33,1.02-3.71,1.02-1.08,0-2.06-.21-2.93-.64-.87-.43-1.57-1.06-2.11-1.89v8.39h-4.41Zm8.26-9.7c1.17,0,2.12-.42,2.85-1.25.73-.83,1.1-1.92,1.1-3.25s-.37-2.42-1.1-3.25-1.68-1.25-2.85-1.25-2.19.42-2.94,1.25c-.75.83-1.13,1.92-1.13,3.25s.38,2.42,1.13,3.25c.75.83,1.73,1.25,2.94,1.25Z"/><path d="m75.58,34.88c-.33-.25-.75-.45-1.26-.61-.51-.16-1-.23-1.48-.23-.85,0-1.52.17-2,.51-.48.34-.72.82-.72,1.44,0,1.05.77,1.72,2.31,2.01l.87.17c1.03.21,1.79.55,2.28,1.03s.73,1.12.73,1.93c0,.92-.34,1.62-1.01,2.12-.68.5-1.63.75-2.85.75-.67,0-1.31-.1-1.92-.29-.61-.19-1.12-.45-1.51-.77l.41-.75c.36.28.82.5,1.37.67.55.17,1.11.25,1.68.25.94,0,1.65-.17,2.14-.5s.73-.82.73-1.47c0-.57-.19-1.03-.57-1.37-.38-.34-.98-.59-1.8-.75l-.83-.16c-1.02-.2-1.77-.53-2.26-.98-.49-.46-.73-1.08-.73-1.86,0-.87.33-1.57.99-2.1.66-.52,1.54-.79,2.64-.79.6,0,1.19.09,1.77.27.58.18,1.06.42,1.44.73l-.42.73Z"/><path d="m84.97,43.15c-.33.27-.75.48-1.25.63s-1.05.23-1.64.23c-1.22,0-2.18-.37-2.89-1.11-.71-.74-1.07-1.74-1.07-3.01,0-.8.16-1.52.49-2.14s.77-1.11,1.33-1.45c.56-.34,1.19-.51,1.87-.51.99,0,1.78.34,2.37,1.03.59.69.89,1.61.89,2.78v.5h-6.07c.03.98.32,1.74.86,2.29.54.55,1.28.82,2.21.82.51,0,.99-.06,1.44-.2.45-.13.82-.31,1.12-.55l.33.7Zm-3.18-6.55c-.75,0-1.38.25-1.88.75-.5.5-.8,1.16-.88,2h5.18c-.03-.85-.26-1.52-.69-2.01-.43-.49-1.01-.73-1.72-.73Z"/><path d="m93.35,46.96v-4.73c-.29.56-.7,1-1.24,1.31-.54.31-1.13.47-1.77.47-.73,0-1.37-.19-1.93-.55-.56-.37-1-.86-1.3-1.48-.31-.62-.46-1.31-.46-2.07,0-.8.17-1.52.5-2.14.33-.63.78-1.12,1.33-1.46.56-.34,1.18-.51,1.86-.51s1.26.16,1.79.47c.53.31.94.76,1.24,1.34v-1.61h.87v10.97h-.89Zm-2.95-3.78c.57,0,1.09-.15,1.54-.44.46-.3.81-.69,1.05-1.19.24-.49.37-1.04.37-1.65,0-.64-.14-1.22-.41-1.72-.27-.5-.63-.89-1.08-1.16s-.94-.41-1.48-.41-1.05.15-1.48.45c-.44.3-.77.7-1.01,1.19s-.35,1.04-.35,1.65c0,.63.13,1.2.38,1.7.25.5.6.89,1.03,1.16.43.28.91.41,1.43.41Z"/><path d="m99.85,44.01c-.95,0-1.68-.29-2.19-.87-.51-.58-.77-1.4-.77-2.47v-4.68h.89v4.63c0,.83.19,1.47.57,1.9.38.44.91.66,1.6.66.76,0,1.38-.24,1.85-.73.47-.49.71-1.16.71-2.03v-4.43h.89v7.82h-.87v-1.29c-.26.49-.62.86-1.08,1.12-.46.25-.99.38-1.58.38Z"/><path d="m112.43,43.15c-.33.27-.75.48-1.25.63s-1.05.23-1.64.23c-1.22,0-2.18-.37-2.89-1.11-.71-.74-1.07-1.74-1.07-3.01,0-.8.16-1.52.49-2.14s.77-1.11,1.33-1.45c.56-.34,1.19-.51,1.87-.51.99,0,1.78.34,2.37,1.03.59.69.89,1.61.89,2.78v.5h-6.07c.03.98.32,1.74.86,2.29.54.55,1.28.82,2.21.82.51,0,.99-.06,1.44-.2.45-.13.82-.31,1.12-.55l.33.7Zm-3.18-6.55c-.75,0-1.38.25-1.88.75-.5.5-.8,1.16-.88,2h5.18c-.03-.85-.26-1.52-.69-2.01-.43-.49-1.01-.73-1.72-.73Z"/><path d="m120.27,43.8v-4.63c0-.82-.19-1.45-.57-1.9-.38-.44-.92-.66-1.61-.66-.79,0-1.42.25-1.88.74s-.69,1.16-.69,2v4.45h-.89v-7.82h.87v1.31c.25-.49.6-.86,1.06-1.12.46-.26,1-.39,1.62-.39.96,0,1.69.29,2.21.87s.77,1.4.77,2.47v4.68h-.89Z"/><path d="m127.04,44.01c-1.11,0-2.02-.38-2.71-1.14-.7-.76-1.05-1.75-1.05-2.96,0-.82.16-1.54.49-2.17.33-.62.77-1.1,1.34-1.44.57-.34,1.21-.51,1.93-.51,1.19,0,2.1.32,2.75.97l-.45.67c-.57-.54-1.33-.81-2.28-.81-.85,0-1.54.3-2.07.9-.53.6-.79,1.4-.79,2.39s.26,1.77.79,2.37c.52.6,1.21.9,2.07.9.49,0,.95-.08,1.39-.23.44-.15.77-.35,1.01-.58l.39.7c-.31.29-.71.52-1.2.69-.49.17-1.02.25-1.61.25Z"/><path d="m137.76,43.15c-.33.27-.75.48-1.25.63s-1.05.23-1.64.23c-1.22,0-2.18-.37-2.89-1.11-.71-.74-1.07-1.74-1.07-3.01,0-.8.16-1.52.49-2.14.33-.63.77-1.11,1.33-1.45.56-.34,1.19-.51,1.87-.51.99,0,1.78.34,2.37,1.03.59.69.89,1.61.89,2.78v.5h-6.07c.03.98.32,1.74.86,2.29s1.28.82,2.21.82c.51,0,.99-.06,1.44-.2.45-.13.82-.31,1.12-.55l.33.7Zm-3.18-6.55c-.75,0-1.38.25-1.88.75-.5.5-.8,1.16-.88,2h5.18c-.03-.85-.26-1.52-.69-2.01-.43-.49-1.01-.73-1.72-.73Z"/><path d="m16.14,34.05v-5.05l-1-1h-4.18v-2h19.05l1-1v-3h3.14l1-1v-5.05l-1-1h-3.14v-2.95l-1-1H11v-2h4.14l1-1V3l-1-1H5l-1,1v5l1,1h4v5.95h-4l-1,1v5.05l1,1h3.95v6h-3.95l-1,1v5.05l1,1h10.14l1-1ZM6,4h8.14v3H6v-3Zm27.14,16h-8.14v-3.05h8.14v3.05Zm-27.14,0v-3.05h8.14v3.05H6Zm9.14,2l1-1v-5.05l-1-1h-4.14v-1.95h18v1.95h-5l-1,1v5.05l1,1h5v2H10.95v-2h4.18Zm-1,11.05H6v-3.05h8.14v3.05Z"/><path d="m47,32h-4l-1,1v.51l-4.38-1.46-.32-.05h-11.92c-1.35,0-2.55.84-2.93,2.05-.3.95-.15,1.94.43,2.72.56.77,1.47,1.23,2.42,1.23h1.39l-1.67,1h-7.64c-1.35,0-2.55.84-2.93,2.05-.3.95-.15,1.94.43,2.72.56.77,1.47,1.23,2.42,1.23h8l8.06-1h8.64v1l1,1h4l1-1v-12l-1-1Zm-13.7,10l-8.06,1h-7.94c-.32,0-.62-.15-.81-.41-.11-.15-.28-.48-.14-.94.12-.38.55-.65,1.03-.65h7.92l.51-.14,4.76-2.86h2.42v-2h-7.7c-.32,0-.62-.15-.81-.41-.11-.15-.28-.48-.14-.94.12-.38.55-.65,1.03-.65h11.75l4.86,1.62v6.38h-8.7Zm12.7,2h-2v-10h2v10Z"/></svg>