<?xml version="1.0" encoding="UTF-8" standalone="no"?>
<!-- Created with Inkscape (http://www.inkscape.org/) -->

<svg
   xmlns:dc="http://purl.org/dc/elements/1.1/"
   xmlns:cc="http://creativecommons.org/ns#"
   xmlns:rdf="http://www.w3.org/1999/02/22-rdf-syntax-ns#"
   xmlns:svg="http://www.w3.org/2000/svg"
   xmlns="http://www.w3.org/2000/svg"
   xmlns:sodipodi="http://sodipodi.sourceforge.net/DTD/sodipodi-0.dtd"
   xmlns:inkscape="http://www.inkscape.org/namespaces/inkscape"
   width="30"
   height="31.999998"
   viewBox="0 0 7.9375002 8.4666662"
   version="1.1"
   id="svg8"
   inkscape:version="0.92.3 (2405546, 2018-03-11)"
   sodipodi:docname="mov.svg">
  <defs
     id="defs2">
    <inkscape:perspective
       sodipodi:type="inkscape:persp3d"
       inkscape:vp_x="0 : 148.5 : 1"
       inkscape:vp_y="0 : 999.99998 : 0"
       inkscape:vp_z="210.00001 : 148.5 : 1"
       inkscape:persp3d-origin="105.00001 : 98.999998 : 1"
       id="perspective3741" />
  </defs>
  <sodipodi:namedview
     id="base"
     pagecolor="#ffffff"
     bordercolor="#666666"
     borderopacity="1.0"
     inkscape:pageopacity="0.0"
     inkscape:pageshadow="2"
     inkscape:zoom="22.4"
     inkscape:cx="19.95874"
     inkscape:cy="15.515713"
     inkscape:document-units="mm"
     inkscape:current-layer="layer1"
     showgrid="false"
     inkscape:object-paths="true"
     inkscape:object-nodes="true"
     inkscape:snap-others="true"
     inkscape:measure-start="0,0"
     inkscape:measure-end="0,0"
     inkscape:window-width="1920"
     inkscape:window-height="1017"
     inkscape:window-x="-8"
     inkscape:window-y="-8"
     inkscape:window-maximized="1"
     fit-margin-top="0"
     fit-margin-left="0"
     fit-margin-right="0"
     fit-margin-bottom="0"
     units="px" />
  <metadata
     id="metadata5">
    <rdf:RDF>
      <cc:Work
         rdf:about="">
        <dc:format>image/svg+xml</dc:format>
        <dc:type
           rdf:resource="http://purl.org/dc/dcmitype/StillImage" />
        <dc:title></dc:title>
      </cc:Work>
    </rdf:RDF>
  </metadata>
  <g
     inkscape:label="Layer 1"
     inkscape:groupmode="layer"
     id="layer1"
     transform="translate(-64.626842,-156.3527)">
    <g
       id="g3730"
       transform="matrix(0.26458333,0,0,0.26458333,63.766946,156.3527)">
      <g
         id="File">
        <g
           id="g3715">
          <path
             id="path3713"
             d="m 22.101,5.995 v -5.96 l 6.526,6.578 h -5.959 c -0.365,0 -0.567,-0.253 -0.567,-0.618 z M 21.203,8 C 20.835,8 20.75,7.775 20.75,7.408 V 0 H 3.958 C 3.593,0 3.25,0.42 3.25,0.788 V 31.283 C 3.25,31.65 3.593,32 3.958,32 h 23.865 c 0.368,0 0.927,-0.35 0.927,-0.717 V 8 Z"
             inkscape:connector-curvature="0" />
        </g>
      </g>
      <g
         id="Ebene_1_1_" />
    </g>
    <rect
       style="opacity:1;fill:#ffffff;fill-opacity:1;stroke:#000000;stroke-width:0.26458332;stroke-opacity:1"
       id="rect3757"
       width="7.4248643"
       height="2.5631511"
       x="64.981194"
       y="160.47974"
       ry="0.20079985"
       rx="0.20079985" />
    <g
       transform="matrix(0.08795894,0,0,0.09075051,67.297243,160.3152)"
       id="Video"
       style="stroke-width:2.96140599">
      <path
         inkscape:connector-curvature="0"
         id="Video_3_"
         d="m 31.5,7.7 -8.8,7.1 V 7.3 c 0,-1.1 -1,-2 -2.1,-2 H 2 c -1.1,0 -2,0.9 -2,2 v 17.3 c 0,1.1 0.9,2.1 2,2.1 h 18.7 c 1.1,0 2.1,-1 2.1,-2.1 v -7.5 l 8.8,7.1 c 0.3,0.2 0.5,0.1 0.5,-0.2 V 8 C 32,7.6 31.8,7.5 31.5,7.7 Z"
         style="stroke-width:2.96140599" />
    </g>
  </g>
</svg>
