<?xml version="1.0" encoding="UTF-8" standalone="no"?>
<!-- Generator: Adobe Illustrator 20.0.0, SVG Export Plug-In . SVG Version: 6.00 Build 0)  -->

<svg
   xmlns:dc="http://purl.org/dc/elements/1.1/"
   xmlns:cc="http://creativecommons.org/ns#"
   xmlns:rdf="http://www.w3.org/1999/02/22-rdf-syntax-ns#"
   xmlns:svg="http://www.w3.org/2000/svg"
   xmlns="http://www.w3.org/2000/svg"
   xmlns:sodipodi="http://sodipodi.sourceforge.net/DTD/sodipodi-0.dtd"
   xmlns:inkscape="http://www.inkscape.org/namespaces/inkscape"
   version="1.1"
   id="Ebene_1"
   x="0px"
   y="0px"
   viewBox="0 0 32 32"
   style="enable-background:new 0 0 32 32;"
   xml:space="preserve"
   width="32px"
   height="32px"
   class="br-symbol-library"
   sodipodi:docname="root.svg"
   inkscape:version="0.92.3 (2405546, 2018-03-11)"><metadata
   id="metadata11"><rdf:RDF><cc:Work
       rdf:about=""><dc:format>image/svg+xml</dc:format><dc:type
         rdf:resource="http://purl.org/dc/dcmitype/StillImage" /></cc:Work></rdf:RDF></metadata><defs
   id="defs9" /><sodipodi:namedview
   pagecolor="#ffffff"
   bordercolor="#666666"
   borderopacity="1"
   objecttolerance="10"
   gridtolerance="10"
   guidetolerance="10"
   inkscape:pageopacity="0"
   inkscape:pageshadow="2"
   inkscape:window-width="1920"
   inkscape:window-height="1017"
   id="namedview7"
   showgrid="false"
   inkscape:zoom="14.75"
   inkscape:cx="31.926099"
   inkscape:cy="11.397955"
   inkscape:window-x="-8"
   inkscape:window-y="-8"
   inkscape:window-maximized="1"
   inkscape:current-layer="Ebene_1" />
<g
   id="Package">
	<path
   d="M32,29.292c0,0.736-0.597,1.333-1.333,1.333H1.333C0.597,30.625,0,30.028,0,29.292V10.708c0-0.736,0.597-1.333,1.333-1.333   h29.333c0.737,0,1.334,0.597,1.334,1.333V29.292z M29.295,4.125H15.513l-0.462-1.442c-0.236-0.697-1.023-1.308-1.756-1.308H6.628   c-0.733,0-1.524,0.611-1.755,1.308L4.406,4.125H2.628c-0.733,0-1.378,0.559-1.378,1.293v2.707h29.5V5.418   C30.75,4.684,30.028,4.125,29.295,4.125z"
   id="path2" />
</g>
<g
   id="Ebene_1_1_">
</g>
<g
   id="g831"
   transform="matrix(1.2788462,0,0,1.2137405,-17.255541,-10.63527)"
   style="fill:#ffffff"><g
     id="Home"
     style="fill:#ffffff">
	<polygon
   points="26.8,17 32,17 24.3,9.2 24.3,1.5 20.5,1.5 20.5,5.4 16,1 0,17 5,17 5,31 12.8,31 12.8,23.2 19.3,23.2 19.3,31 26.8,31 "
   id="Home_3_"
   style="fill:#ffffff"
   transform="matrix(0.44067797,0,0,0.4440678,18.847457,17.911864)" />
</g><g
     id="Ebene_1_1_-6"
     style="fill:#ffffff">
</g></g></svg>